<?xml version="1.0" encoding="UTF-8"?>
<!DOCTYPE svg PUBLIC "-//W3C//DTD SVG 1.1//EN" "http://www.w3.org/Graphics/SVG/1.1/DTD/svg11.dtd">

<svg xmlns="http://www.w3.org/2000/svg" xml:space="preserve" version="1.1" style="shape-rendering:geometricPrecision; text-rendering:geometricPrecision; image-rendering:optimizeQuality; fill-rule:evenodd; clip-rule:evenodd"
viewBox="0 0 1640 555.98"
 xmlns:xlink="http://www.w3.org/1999/xlink">
 <defs>
  <style type="text/css">
   <![CDATA[
    .str1 {stroke:#A6CE39;stroke-width:2.36;stroke-miterlimit:22.9256}
    .str2 {stroke:#0066B3;stroke-width:1.18;stroke-miterlimit:22.9256}
    .str0 {stroke:#0066B3;stroke-width:35.43;stroke-linecap:round;stroke-miterlimit:22.9256}
    .fil0 {fill:none}
    .fil3 {fill:none;fill-rule:nonzero}
    .fil1 {fill:#A6CE39}
    .fil2 {fill:#0066B3;fill-rule:nonzero}
   ]]>
  </style>
 </defs>
 <g id="Слой_x0020_1">
  <g id="_2786551912896">
   <path class="fil0 str0" d="M74.18 259.32c115.62,-123.96 382.55,-191.14 580.47,-1.56"/>
   <circle class="fil0 str0" cx="364.28" cy="251.51" r="89.58"/>
   <path class="fil0 str0" d="M212.33 364.53c66.67,45.84 234.24,46.88 304.04,-1.04"/>
   <path class="fil1 str1" d="M364.54 211.93c21.14,0 38.28,17.72 38.28,39.58 0,21.87 -17.14,39.59 -38.28,39.59 -21.14,0 -38.28,-17.72 -38.28,-39.59 0,-7.34 1.93,-14.22 5.3,-20.11 1.89,6.5 7.9,11.26 15.01,11.26 8.63,0 15.62,-7 15.62,-15.63 0,-5.86 -3.22,-10.96 -8,-13.64 3.3,-0.95 6.76,-1.46 10.35,-1.46z"/>
   <path class="fil0" d="M16.35 186.5c22.14,-40.23 367.72,-312.5 731.26,-13.54"/>
   <path class="fil2" d="M32 152.37l5.57 -4.6 9.71 11.73c1.14,-1.16 1.71,-2.17 1.73,-3.04 0.01,-0.88 -0.5,-2.87 -1.52,-5.97 -1.32,-3.94 -1.69,-6.75 -1.13,-8.45 0.55,-1.68 2.11,-3.58 4.68,-5.71 0.12,-0.1 0.39,-0.33 0.79,-0.68l3.41 4.11 -0.81 0.64c-1.13,0.94 -1.85,1.77 -2.15,2.49 -0.28,0.72 -0.36,1.5 -0.2,2.34 0.14,0.85 0.65,2.44 1.49,4.76 0.44,1.23 0.74,2.33 0.87,3.29 0.14,0.97 -0.06,2.15 -0.6,3.54 1.53,-0.67 3.14,-0.81 4.83,-0.42 1.69,0.4 3.82,1.17 6.39,2.32l10.02 4.44 -6.54 5.42 -9.19 -4.41c-0.13,-0.06 -0.4,-0.16 -0.8,-0.32 -0.14,-0.04 -0.73,-0.28 -1.77,-0.72 -1.84,-0.76 -3.12,-1.12 -3.86,-1.08 -0.73,0.04 -1.58,0.45 -2.53,1.21l9.99 12.06 -5.56 4.61 -22.82 -27.56z"/>
   <path id="1" class="fil2" d="M60.96 129.44l20.97 -13.74 19.62 29.93 -6.04 3.97 -16.3 -24.87 -9.01 5.9 8.38 12.78c2.41,3.66 3.96,6.3 4.66,7.91 0.71,1.61 0.85,3.13 0.44,4.56 -0.42,1.43 -1.63,2.81 -3.65,4.13 -0.71,0.46 -2.04,1.24 -3.99,2.33l-3.07 -4.68 1.37 -0.87c1.26,-0.82 2,-1.55 2.21,-2.18 0.21,-0.63 -0.12,-1.6 -0.99,-2.95l-3.39 -5.12 -11.21 -17.1z"/>
   <polygon id="2" class="fil2" points="90.23,109.8 96.14,106.51 107.7,127.34 108.81,99.48 115.11,95.98 132.48,127.26 126.57,130.54 115.23,110.12 113.91,137.57 107.6,141.07 "/>
   <polygon id="3" class="fil2" points="138.88,123.52 122.37,91.79 128.78,88.45 135.27,100.94 147.83,94.41 141.33,81.92 147.74,78.58 164.25,110.32 157.84,113.65 150.63,99.78 138.07,106.31 145.28,120.19 "/>
   <polygon id="4" class="fil2" points="157.29,74.48 163.52,71.84 172.83,93.77 176.87,66.17 183.49,63.36 197.48,96.3 191.25,98.95 182.13,77.44 177.92,104.61 171.27,107.42 "/>
   <path id="5" class="fil2" d="M193.09 59.19l6.87 -2.26 4.76 14.46c1.48,-0.66 2.38,-1.4 2.71,-2.21 0.34,-0.82 0.59,-2.85 0.77,-6.1 0.2,-4.15 0.88,-6.91 2.02,-8.28 1.12,-1.36 3.27,-2.57 6.44,-3.62 0.15,-0.05 0.48,-0.16 0.98,-0.34l1.68 5.07 -0.98 0.3c-1.41,0.46 -2.38,0.98 -2.91,1.53 -0.53,0.57 -0.89,1.27 -1.05,2.11 -0.17,0.84 -0.28,2.5 -0.34,4.97 -0.03,1.31 -0.16,2.44 -0.38,3.39 -0.24,0.95 -0.85,1.97 -1.86,3.07 1.68,-0.06 3.23,0.39 4.65,1.37 1.43,0.98 3.14,2.48 5.12,4.48l7.7 7.79 -8.06 2.66 -6.95 -7.44c-0.1,-0.11 -0.31,-0.31 -0.63,-0.6 -0.12,-0.09 -0.58,-0.53 -1.38,-1.32 -1.44,-1.37 -2.5,-2.18 -3.2,-2.41 -0.71,-0.23 -1.64,-0.16 -2.8,0.21l4.9 14.87 -6.85 2.26 -11.21 -33.96z"/>
   <path id="6" class="fil2" d="M263.99 74.14l-7.53 2.22 -5.29 -6.91 -13.73 4.04 -0.54 8.62 -7.35 2.17 3.27 -38.26 7.32 -2.15 23.85 30.27zm-16.76 -9.82l-8.47 -11.34 -0.89 14.1 9.36 -2.76z"/>
   <polygon id="7" class="fil2" points="281.2,70.2 274.96,34.97 285.61,33.08 296.26,55.98 298.32,30.83 308.99,28.93 315.24,64.17 308.63,65.34 303.71,37.6 301.62,66.58 294.78,67.79 282.9,41.29 287.81,69.03 "/>
   <polygon id="8" class="fil2" points="319.66,26.62 326.4,26.12 328.18,49.86 340.85,25.04 348.03,24.5 350.7,60.16 343.96,60.67 342.22,37.39 329.53,61.75 322.33,62.29 "/>
   <path id="9" class="fil2" d="M357.15 23.24l7.22 -0.21 0.43 15.22c1.6,-0.21 2.68,-0.65 3.23,-1.33 0.55,-0.69 1.38,-2.57 2.48,-5.64 1.39,-3.91 2.82,-6.36 4.31,-7.35 1.47,-0.98 3.86,-1.52 7.2,-1.61 0.16,-0.01 0.51,-0.02 1.05,-0.06l0.14 5.34 -1.02 0.01c-1.48,0.04 -2.55,0.25 -3.22,0.64 -0.68,0.39 -1.22,0.96 -1.62,1.72 -0.4,0.76 -0.99,2.31 -1.75,4.66 -0.4,1.24 -0.84,2.29 -1.33,3.14 -0.5,0.84 -1.37,1.65 -2.65,2.41 1.62,0.41 2.97,1.29 4.06,2.65 1.08,1.35 2.29,3.27 3.62,5.75l5.15 9.67 -8.49 0.23 -4.53 -9.11c-0.06,-0.14 -0.22,-0.38 -0.43,-0.75 -0.09,-0.13 -0.41,-0.68 -0.95,-1.65 -0.98,-1.74 -1.77,-2.81 -2.37,-3.23 -0.61,-0.42 -1.52,-0.63 -2.75,-0.61l0.45 15.65 -7.22 0.21 -1.01 -35.75z"/>
   <path id="10" class="fil2" d="M388.55 58.14l1.08 -35.75 11.58 0.35c4.39,0.12 7.25,0.39 8.57,0.79 2.04,0.6 3.71,1.82 5.04,3.65 1.33,1.84 1.95,4.18 1.86,7.03 -0.06,2.19 -0.51,4.03 -1.36,5.5 -0.84,1.48 -1.89,2.62 -3.14,3.43 -1.25,0.82 -2.52,1.35 -3.79,1.59 -1.74,0.29 -4.24,0.38 -7.51,0.28l-4.71 -0.14 -0.4 13.49 -7.22 -0.22zm8.11 -29.49l-0.31 10.15 3.96 0.12c2.85,0.08 4.75,-0.05 5.73,-0.39 0.96,-0.35 1.74,-0.91 2.3,-1.69 0.57,-0.78 0.87,-1.7 0.9,-2.76 0.04,-1.29 -0.31,-2.38 -1.04,-3.25 -0.75,-0.87 -1.7,-1.43 -2.86,-1.67 -0.86,-0.19 -2.59,-0.32 -5.19,-0.4l-3.49 -0.11z"/>
   <path id="11" class="fil2" d="M421.6 41.58c0.38,-3.63 1.23,-6.61 2.58,-8.96 0.99,-1.72 2.27,-3.24 3.82,-4.53 1.55,-1.29 3.19,-2.2 4.93,-2.72 2.31,-0.71 4.92,-0.91 7.82,-0.61 5.24,0.55 9.26,2.61 12.08,6.19 2.8,3.58 3.9,8.27 3.3,14.06 -0.61,5.75 -2.63,10.08 -6.1,13 -3.45,2.92 -7.8,4.1 -13.03,3.56 -5.29,-0.55 -9.33,-2.61 -12.11,-6.17 -2.79,-3.54 -3.89,-8.15 -3.29,-13.82zm7.43 0.53c-0.43,4.03 0.18,7.18 1.83,9.46 1.64,2.27 3.89,3.56 6.76,3.85 2.86,0.3 5.32,-0.48 7.38,-2.35 2.05,-1.87 3.29,-4.87 3.72,-9 0.42,-4.08 -0.15,-7.21 -1.73,-9.4 -1.58,-2.2 -3.85,-3.45 -6.81,-3.76 -2.96,-0.31 -5.46,0.46 -7.48,2.3 -2.02,1.84 -3.25,4.81 -3.67,8.9z"/>
   <polygon id="12" class="fil2" points="454.37,62.77 469.31,46.17 460.96,27.57 469.3,28.85 474.65,41.31 483.35,31.02 491.62,32.29 477.98,47.77 487.26,67.83 478.65,66.5 472.69,53.06 462.94,64.09 "/>
   <polygon id="13" class="fil2" points="498.52,34.33 505.12,35.77 500.03,59.03 519.28,38.88 526.31,40.42 518.66,75.36 512.05,73.91 517.06,51.1 497.92,70.81 490.86,69.27 "/>
   <path id="14" class="fil2" d="M525.57 78.18l10.07 -34.33 11.12 3.25c4.22,1.24 6.91,2.21 8.09,2.93 1.82,1.1 3.14,2.7 3.96,4.81 0.82,2.12 0.83,4.55 0.03,7.28 -0.62,2.11 -1.52,3.76 -2.7,4.98 -1.19,1.21 -2.5,2.05 -3.92,2.53 -1.42,0.47 -2.77,0.66 -4.07,0.57 -1.75,-0.16 -4.19,-0.69 -7.33,-1.62l-4.53 -1.33 -3.79 12.96 -6.93 -2.03zm15.3 -26.5l-2.86 9.74 3.8 1.11c2.73,0.81 4.6,1.17 5.63,1.08 1.03,-0.09 1.92,-0.44 2.66,-1.06 0.75,-0.61 1.27,-1.42 1.57,-2.43 0.36,-1.25 0.3,-2.39 -0.2,-3.42 -0.49,-1.02 -1.27,-1.8 -2.33,-2.34 -0.79,-0.4 -2.43,-0.96 -4.92,-1.69l-3.35 -0.99z"/>
   <path id="15" class="fil2" d="M565.52 53.58l7.57 2.78 1.44 20.32 13.1 -14.98 7.08 2.6 -20.72 21.36c-2.26,2.31 -4.28,3.96 -6.1,4.93 -1.81,0.97 -3.74,1.08 -5.77,0.33 -2,-0.73 -3.52,-1.43 -4.55,-2.11l1.85 -5.04c0.94,0.41 1.8,0.76 2.58,1.05 1.57,0.58 2.8,0.71 3.69,0.38 0.9,-0.32 2,-1.31 3.32,-2.98l-3.49 -28.64z"/>
   <path id="16" class="fil2" d="M585.45 99.96l14.42 -32.72 10.61 4.67c4.01,1.77 6.56,3.08 7.64,3.95 1.66,1.32 2.75,3.08 3.3,5.28 0.53,2.2 0.23,4.61 -0.92,7.21 -0.88,2.01 -1.99,3.54 -3.32,4.59 -1.33,1.05 -2.74,1.71 -4.2,2 -1.47,0.28 -2.84,0.3 -4.11,0.04 -1.72,-0.38 -4.07,-1.23 -7.06,-2.55l-4.31 -1.9 -5.43 12.34 -6.62 -2.91zm18.59 -24.28l-4.09 9.29 3.61 1.59c2.61,1.15 4.43,1.75 5.45,1.79 1.03,0.05 1.96,-0.19 2.78,-0.7 0.82,-0.5 1.44,-1.24 1.86,-2.21 0.53,-1.19 0.61,-2.33 0.25,-3.41 -0.35,-1.08 -1.03,-1.96 -2.01,-2.62 -0.73,-0.5 -2.28,-1.27 -4.65,-2.32l-3.2 -1.41z"/>
   <polygon id="17" class="fil2" points="632.27,82.42 653.85,93.48 651.11,98.82 635.97,91.06 622.39,117.57 615.96,114.28 "/>
   <polygon id="18" class="fil2" points="658.93,96.85 664.74,100.3 652.57,120.78 677.21,107.71 683.4,111.39 665.13,142.15 659.31,138.71 671.24,118.62 646.87,131.3 640.65,127.62 "/>
   <polygon id="19" class="fil2" points="691.74,116.94 697.29,120.79 683.7,140.36 709.2,129.06 715.11,133.18 694.7,162.57 689.15,158.71 702.47,139.52 677.26,150.45 671.33,146.33 "/>
   <path class="fil2" d="M759.35 378.29c-1.74,0 -2.97,-0.4 -3.69,-1.19 -0.72,-0.8 -1.08,-2.06 -1.08,-3.79l0 -141.92c0,-1.74 0.36,-2.96 1.08,-3.69 0.72,-0.72 1.95,-1.08 3.69,-1.08l147.33 0c1.73,0 3,0.36 3.79,1.08 0.8,0.73 1.19,1.95 1.19,3.69l0 26.86c0,1.74 -0.39,2.97 -1.19,3.69 -0.79,0.72 -2.06,1.08 -3.79,1.08l-110.5 0 0 110.29c0,1.73 -0.36,2.99 -1.08,3.79 -0.73,0.79 -1.95,1.19 -3.69,1.19l-32.06 0z"/>
   <path id="1" class="fil2" d="M945.81 379.37c-3.32,0 -4.98,-1.66 -4.98,-4.98l0 -30.33c0,-1.74 0.39,-2.97 1.19,-3.69 0.79,-0.72 2.06,-1.08 3.79,-1.08l14.3 0c8.67,0 13,-4.34 13,-13l0 -94.9c0,-1.74 0.4,-2.96 1.19,-3.69 0.8,-0.72 2.06,-1.08 3.79,-1.08l158.6 0c1.74,0 3,0.36 3.8,1.08 0.79,0.73 1.19,1.95 1.19,3.69l0 141.92c0,3.32 -1.66,4.98 -4.99,4.98l-31.85 0c-3.32,0 -4.98,-1.66 -4.98,-4.98l0 -110.29 -84.93 0 0 63.27c0,18.63 -4.12,32.14 -12.35,40.51 -8.24,8.38 -21.45,12.57 -39.65,12.57l-17.12 0z"/>
   <path id="2" class="fil2" d="M1386.21 370.49c0.72,1.44 1.08,2.67 1.08,3.68 0,1.3 -0.43,2.31 -1.3,3.04 -0.87,0.72 -2.17,1.08 -3.9,1.08l-32.07 0c-1.73,0 -3.17,-0.36 -4.33,-1.08 -1.15,-0.73 -2.17,-1.88 -3.03,-3.47l-12.35 -23.19 -88.19 0 -12.35 23.19c-1.73,3.03 -4.18,4.55 -7.36,4.55l-32.29 0c-1.73,0 -3.03,-0.36 -3.9,-1.08 -0.86,-0.73 -1.3,-1.74 -1.3,-3.04 0,-1.01 0.36,-2.24 1.09,-3.68l77.78 -139.54c1.44,-2.88 3.9,-4.33 7.37,-4.33l30.11 0c3.33,0 5.78,1.45 7.37,4.33l77.57 139.54zm-100.97 -105.08l-28.17 53.73 58.29 0 -28.17 -53.73 -1.95 0z"/>
   <path id="3" class="fil2" d="M1460.22 378.29c-11.55,0 -20.08,-2.78 -25.56,-8.34 -5.49,-5.56 -8.24,-14.12 -8.24,-25.68l0 -17.55c0,-1.73 0.36,-2.96 1.08,-3.68 0.73,-0.72 1.95,-1.08 3.69,-1.08l34.45 0c3.32,0 4.98,1.58 4.98,4.76l0 8.89c0,4.04 1.05,7.11 3.14,9.2 2.1,2.1 5.09,3.15 8.99,3.15l73.46 0c4.04,0 6.93,-0.91 8.66,-2.71 1.73,-1.81 2.6,-4.73 2.6,-8.78l0 -7.8c0,-4.04 -0.87,-6.97 -2.6,-8.77 -1.73,-1.81 -4.62,-2.71 -8.66,-2.71l-55.69 0c-1.73,0 -2.96,-0.36 -3.68,-1.08 -0.72,-0.73 -1.09,-1.95 -1.09,-3.69l0 -19.06c0,-1.74 0.37,-2.97 1.09,-3.69 0.72,-0.72 1.95,-1.08 3.68,-1.08l51.35 0c4.05,0 6.93,-0.9 8.67,-2.71 1.73,-1.81 2.6,-4.73 2.6,-8.77l0 -8.89c0,-4.04 -0.87,-6.93 -2.6,-8.66 -1.74,-1.74 -4.62,-2.61 -8.67,-2.61l-68.03 0c-3.9,0 -6.9,1.05 -8.99,3.15 -2.1,2.09 -3.15,5.09 -3.15,8.99l0 8.88c0,3.32 -1.66,4.99 -4.98,4.99l-34.45 0c-1.73,0 -2.96,-0.4 -3.68,-1.2 -0.72,-0.79 -1.09,-2.05 -1.09,-3.79l0 -17.55c0,-11.55 2.79,-20.08 8.35,-25.57 5.56,-5.48 14.04,-8.23 25.45,-8.23l110.07 0c11.56,0 20.04,2.57 25.46,7.69 5.42,5.13 8.12,13.04 8.12,23.73l0 14.73c0,12.71 -4.55,20.3 -13.64,22.75l0 1.95c11.98,2.02 17.98,11.05 17.98,27.09l0 19.71c0,11.56 -2.78,20.12 -8.34,25.68 -5.57,5.56 -14.12,8.34 -25.68,8.34l-115.05 0z"/>
   <polygon class="fil2" points="70.57,463.79 76.93,463.79 76.93,508.68 105.08,463.79 112.02,463.79 112.02,520.48 105.66,520.48 105.66,475.71 77.58,520.48 70.57,520.48 "/>
   <path id="1" class="fil2" d="M123.38 520.48l0 -56.69 10.49 0 12.51 40.13c1.16,3.73 2,6.53 2.53,8.39 0.6,-2.06 1.55,-5.09 2.83,-9.09l12.73 -39.43 9.37 0 0 56.69 -6.72 0 0 -47.42 -15.44 47.42 -6.31 0 -15.26 -48.29 0 48.29 -6.73 0z"/>
   <polygon id="2" class="fil2" points="186.1,520.48 186.1,512.56 193.49,512.56 193.49,520.48 "/>
   <path id="3" class="fil2" d="M220.32 520.48l20.29 -56.69 7.7 0 21.54 56.69 -7.97 0 -6.12 -17.18 -22.28 0 -5.73 17.18 -7.43 0zm15.22 -23.28l18.03 0 -5.52 -15.71c-1.66,-4.78 -2.92,-8.72 -3.79,-11.84 -0.73,3.7 -1.7,7.33 -2.92,10.92l-5.8 16.63z"/>
   <path id="4" class="fil2" d="M275.55 463.79l7.01 0 0 24.86c3.19,0 5.45,-0.67 6.74,-2 1.31,-1.34 2.96,-4.53 4.97,-9.6 1.47,-3.73 2.68,-6.35 3.64,-7.88 0.95,-1.55 2.3,-2.84 4.06,-3.88 1.75,-1.05 3.69,-1.57 5.81,-1.57 2.7,0 4.11,0.02 4.26,0.07l0 6.5c-0.24,0 -0.71,-0.02 -1.4,-0.04 -0.78,-0.03 -1.25,-0.04 -1.42,-0.04 -2.23,0 -3.89,0.58 -4.97,1.74 -1.11,1.16 -2.37,3.64 -3.79,7.43 -1.78,4.8 -3.28,7.83 -4.51,9.09 -1.22,1.24 -2.7,2.24 -4.4,2.99 3.41,1.01 6.79,4.4 10.11,10.15l10.9 18.87 -8.69 0 -8.88 -15.36c-2.43,-4.26 -4.46,-7.19 -6.08,-8.77 -1.64,-1.6 -3.75,-2.39 -6.35,-2.39l0 26.52 -7.01 0 0 -56.69z"/>
   <path id="5" class="fil2" d="M312.63 520.48l20.29 -56.69 7.7 0 21.54 56.69 -7.97 0 -6.12 -17.18 -22.27 0 -5.74 17.18 -7.43 0zm15.22 -23.28l18.03 0 -5.52 -15.71c-1.66,-4.78 -2.92,-8.72 -3.79,-11.84 -0.73,3.7 -1.7,7.33 -2.92,10.92l-5.8 16.63z"/>
   <path id="6" class="fil2" d="M374.96 463.79l32.21 0 0 50.04 4.73 0 0 19.87 -6.21 0 0 -13.22 -35.01 0 0 13.22 -6.21 0 0 -19.87 4.06 0c4.29,-6.89 6.43,-20.81 6.43,-41.75l0 -8.29zm25.19 6.65l-18.47 0 0 2.91c0,4.83 -0.4,11.44 -1.21,19.82 -0.81,8.37 -2.41,15.26 -4.77,20.66l24.45 0 0 -43.39z"/>
   <polygon id="7" class="fil2" points="420.33,520.48 420.33,463.79 458.53,463.79 458.53,470.44 427.35,470.44 427.35,487.86 456.53,487.86 456.53,494.51 427.35,494.51 427.35,513.83 459.78,513.83 459.78,520.48 "/>
   <path id="8" class="fil2" d="M469.32 520.48l0 -56.69 10.49 0 12.51 40.13c1.15,3.73 1.99,6.53 2.52,8.39 0.6,-2.06 1.55,-5.09 2.83,-9.09l12.73 -39.43 9.37 0 0 56.69 -6.72 0 0 -47.42 -15.44 47.42 -6.3 0 -15.27 -48.29 0 48.29 -6.72 0z"/>
   <polygon id="9" class="fil2" points="531.15,463.79 537.5,463.79 537.5,508.68 565.66,463.79 572.6,463.79 572.6,520.48 566.24,520.48 566.24,475.71 538.16,520.48 531.15,520.48 "/>
   <path id="10" class="fil2" d="M584.26 463.79l7.02 0 0 24.86c3.18,0 5.44,-0.67 6.73,-2 1.3,-1.34 2.95,-4.53 4.97,-9.6 1.47,-3.73 2.68,-6.35 3.64,-7.88 0.94,-1.55 2.3,-2.84 4.06,-3.88 1.75,-1.05 3.69,-1.57 5.81,-1.57 2.7,0 4.11,0.02 4.26,0.07l0 6.5c-0.24,0 -0.71,-0.02 -1.4,-0.04 -0.78,-0.03 -1.25,-0.04 -1.42,-0.04 -2.23,0 -3.89,0.58 -4.97,1.74 -1.11,1.16 -2.37,3.64 -3.79,7.43 -1.78,4.8 -3.28,7.83 -4.51,9.09 -1.22,1.24 -2.7,2.24 -4.4,2.99 3.41,1.01 6.79,4.4 10.11,10.15l10.9 18.87 -8.69 0 -8.88 -15.36c-2.43,-4.26 -4.46,-7.19 -6.08,-8.77 -1.64,-1.6 -3.75,-2.39 -6.34,-2.39l0 26.52 -7.02 0 0 -56.69z"/>
   <path id="11" class="fil2" d="M621.34 520.48l20.3 -56.69 7.69 0 21.54 56.69 -7.97 0 -6.12 -17.18 -22.27 0 -5.74 17.18 -7.43 0zm15.22 -23.28l18.03 0 -5.52 -15.71c-1.66,-4.78 -2.92,-8.72 -3.79,-11.84 -0.73,3.7 -1.7,7.33 -2.92,10.92l-5.8 16.63z"/>
   <path id="12" class="fil2" d="M734.62 500.59l7.02 1.9c-1.46,6.17 -4.1,10.85 -7.9,14.08 -3.81,3.24 -8.46,4.86 -13.97,4.86 -5.68,0 -10.31,-1.24 -13.89,-3.74 -3.57,-2.48 -6.27,-6.08 -8.14,-10.79 -1.85,-4.72 -2.79,-9.78 -2.79,-15.19 0,-5.89 1.05,-11.04 3.15,-15.43 2.11,-4.4 5.1,-7.73 8.98,-10.02 3.88,-2.28 8.15,-3.41 12.8,-3.41 5.3,0 9.74,1.43 13.34,4.32 3.61,2.89 6.12,6.94 7.53,12.17l-6.87 1.74c-1.21,-4.12 -3,-7.13 -5.33,-9 -2.32,-1.89 -5.25,-2.82 -8.79,-2.82 -4.05,0 -7.45,1.04 -10.17,3.12 -2.72,2.09 -4.64,4.9 -5.74,8.41 -1.11,3.52 -1.66,7.15 -1.66,10.88 0,4.82 0.65,9.03 1.96,12.62 1.3,3.6 3.34,6.28 6.09,8.06 2.76,1.78 5.74,2.67 8.95,2.67 3.92,0 7.22,-1.22 9.93,-3.63 2.71,-2.43 4.54,-6.02 5.5,-10.8z"/>
   <path id="13" class="fil2" d="M750 520.48l0 -56.69 19.85 0c4.04,0 7.28,0.57 9.73,1.72 2.44,1.15 4.34,2.92 5.72,5.3 1.39,2.38 2.08,4.87 2.08,7.49 0,2.41 -0.61,4.69 -1.83,6.83 -1.22,2.14 -3.07,3.87 -5.54,5.19 3.2,1 5.66,2.71 7.37,5.14 1.73,2.42 2.59,5.28 2.59,8.58 0,2.66 -0.53,5.13 -1.58,7.41 -1.04,2.29 -2.34,4.04 -3.88,5.28 -1.53,1.23 -3.47,2.16 -5.78,2.8 -2.33,0.63 -5.17,0.95 -8.55,0.95l-20.18 0zm7.02 -32.86l11.44 0c3.1,0 5.33,-0.22 6.67,-0.66 1.79,-0.56 3.13,-1.51 4.03,-2.83 0.9,-1.32 1.35,-2.97 1.35,-4.96 0,-1.89 -0.42,-3.55 -1.27,-4.98 -0.83,-1.44 -2.04,-2.43 -3.6,-2.95 -1.57,-0.53 -4.25,-0.8 -8.04,-0.8l-10.58 0 0 17.18zm0 26.21l13.17 0c2.27,0 3.86,-0.09 4.78,-0.28 1.6,-0.3 2.96,-0.82 4.04,-1.54 1.08,-0.73 1.97,-1.78 2.67,-3.17 0.7,-1.38 1.05,-2.98 1.05,-4.79 0,-2.12 -0.51,-3.96 -1.53,-5.53 -1.01,-1.57 -2.41,-2.66 -4.21,-3.3 -1.78,-0.63 -4.37,-0.95 -7.73,-0.95l-12.24 0 0 19.56z"/>
   <path id="14" class="fil2" d="M838.94 520.48l0 -56.69 -23.45 0c-4.71,0 -8.28,0.52 -10.73,1.54 -2.45,1.01 -4.41,2.81 -5.88,5.38 -1.46,2.57 -2.2,5.42 -2.2,8.54 0,4.02 1.22,7.41 3.65,10.17 2.42,2.76 6.16,4.5 11.24,5.25 -1.86,0.95 -3.27,1.9 -4.23,2.82 -2.04,2.01 -3.97,4.53 -5.78,7.55l-9.15 15.44 8.74 0 6.99 -11.8c2.04,-3.42 3.72,-6.01 5.04,-7.82 1.33,-1.81 2.51,-3.06 3.56,-3.79 1.03,-0.71 2.1,-1.21 3.19,-1.5 0.78,-0.17 2.08,-0.27 3.89,-0.27l8.1 0 0 25.18 7.02 0zm-7.02 -31.67l-15.02 0c-3.2,0 -5.69,-0.35 -7.49,-1.07 -1.8,-0.7 -3.16,-1.83 -4.09,-3.4 -0.93,-1.56 -1.4,-3.25 -1.4,-5.08 0,-2.68 0.9,-4.9 2.71,-6.62 1.81,-1.73 4.67,-2.59 8.57,-2.59l16.72 0 0 18.76z"/>
   <polygon id="15" class="fil2" points="863.92,520.48 863.92,470.44 846.49,470.44 846.49,463.79 888.37,463.79 888.37,470.44 870.94,470.44 870.94,520.48 "/>
   <path id="16" class="fil2" d="M890.14 492.89c0,-9.4 2.36,-16.76 7.07,-22.08 4.72,-5.31 10.8,-7.96 18.26,-7.96 4.89,0 9.29,1.25 13.22,3.74 3.91,2.5 6.9,5.98 8.96,10.45 2.06,4.46 3.09,9.53 3.09,15.19 0,5.74 -1.08,10.88 -3.25,15.41 -2.17,4.54 -5.23,7.97 -9.2,10.29 -3.97,2.34 -8.26,3.5 -12.85,3.5 -4.99,0 -9.43,-1.29 -13.36,-3.87 -3.92,-2.57 -6.9,-6.08 -8.92,-10.54 -2.02,-4.45 -3.02,-9.16 -3.02,-14.13zm7.24 0.13c0,6.82 1.71,12.19 5.13,16.11 3.42,3.92 7.72,5.89 12.89,5.89 5.27,0 9.59,-1.98 13,-5.94 3.4,-3.96 5.1,-9.58 5.1,-16.86 0,-4.61 -0.72,-8.63 -2.18,-12.06 -1.45,-3.43 -3.58,-6.1 -6.38,-7.99 -2.8,-1.88 -5.94,-2.83 -9.43,-2.83 -4.95,0 -9.21,1.82 -12.78,5.46 -3.57,3.64 -5.35,9.71 -5.35,18.22z"/>
   <path id="17" class="fil2" d="M987.42 500.59l7.02 1.9c-1.47,6.17 -4.1,10.85 -7.91,14.08 -3.8,3.24 -8.46,4.86 -13.96,4.86 -5.69,0 -10.32,-1.24 -13.89,-3.74 -3.57,-2.48 -6.28,-6.08 -8.14,-10.79 -1.86,-4.72 -2.79,-9.78 -2.79,-15.19 0,-5.89 1.04,-11.04 3.15,-15.43 2.11,-4.4 5.1,-7.73 8.98,-10.02 3.87,-2.28 8.15,-3.41 12.8,-3.41 5.3,0 9.74,1.43 13.34,4.32 3.6,2.89 6.12,6.94 7.53,12.17l-6.87 1.74c-1.22,-4.12 -3,-7.13 -5.33,-9 -2.33,-1.89 -5.26,-2.82 -8.79,-2.82 -4.05,0 -7.45,1.04 -10.17,3.12 -2.72,2.09 -4.64,4.9 -5.74,8.41 -1.11,3.52 -1.66,7.15 -1.66,10.88 0,4.82 0.65,9.03 1.95,12.62 1.31,3.6 3.34,6.28 6.1,8.06 2.76,1.78 5.74,2.67 8.95,2.67 3.92,0 7.22,-1.22 9.93,-3.63 2.71,-2.43 4.54,-6.02 5.5,-10.8z"/>
   <path id="18" class="fil2" d="M1004.56 463.79l33.02 0 0 56.69 -7.02 0 0 -50.04 -18.98 0 0 29.2c0,5.94 -0.26,10.28 -0.78,13.04 -0.52,2.77 -1.61,4.91 -3.27,6.45 -1.67,1.53 -3.78,2.3 -6.33,2.3 -1.55,0 -3.41,-0.34 -5.58,-1.03l1.26 -6.65c1.14,0.63 2.13,0.95 2.94,0.95 1.58,0 2.77,-0.63 3.56,-1.91 0.79,-1.28 1.18,-4.29 1.18,-9.04l0 -39.96z"/>
   <path id="19" class="fil2" d="M1043.33 520.48l20.29 -56.69 7.7 0 21.54 56.69 -7.97 0 -6.12 -17.18 -22.27 0 -5.74 17.18 -7.43 0zm15.22 -23.28l18.03 0 -5.52 -15.71c-1.66,-4.78 -2.92,-8.72 -3.79,-11.84 -0.73,3.7 -1.7,7.33 -2.92,10.92l-5.8 16.63z"/>
   <path id="20" class="fil2" d="M1098.11 520.48l0 -56.69 19.85 0c4.04,0 7.28,0.57 9.73,1.72 2.44,1.15 4.35,2.92 5.72,5.3 1.4,2.38 2.08,4.87 2.08,7.49 0,2.41 -0.61,4.69 -1.83,6.83 -1.22,2.14 -3.06,3.87 -5.54,5.19 3.2,1 5.66,2.71 7.37,5.14 1.73,2.42 2.59,5.28 2.59,8.58 0,2.66 -0.53,5.13 -1.58,7.41 -1.04,2.29 -2.33,4.04 -3.87,5.28 -1.54,1.23 -3.48,2.16 -5.79,2.8 -2.33,0.63 -5.17,0.95 -8.55,0.95l-20.18 0zm7.02 -32.86l11.44 0c3.1,0 5.33,-0.22 6.67,-0.66 1.79,-0.56 3.13,-1.51 4.03,-2.83 0.9,-1.32 1.36,-2.97 1.36,-4.96 0,-1.89 -0.42,-3.55 -1.27,-4.98 -0.84,-1.44 -2.05,-2.43 -3.61,-2.95 -1.56,-0.53 -4.25,-0.8 -8.04,-0.8l-10.58 0 0 17.18zm0 26.21l13.18 0c2.26,0 3.85,-0.09 4.78,-0.28 1.6,-0.3 2.95,-0.82 4.03,-1.54 1.09,-0.73 1.97,-1.78 2.67,-3.17 0.71,-1.38 1.05,-2.98 1.05,-4.79 0,-2.12 -0.5,-3.96 -1.53,-5.53 -1.01,-1.57 -2.41,-2.66 -4.21,-3.3 -1.78,-0.63 -4.37,-0.95 -7.73,-0.95l-12.24 0 0 19.56z"/>
   <path id="21" class="fil2" d="M1139.44 520.48l20.29 -56.69 7.69 0 21.54 56.69 -7.97 0 -6.12 -17.18 -22.27 0 -5.74 17.18 -7.42 0zm15.21 -23.28l18.03 0 -5.51 -15.71c-1.67,-4.78 -2.92,-8.72 -3.8,-11.84 -0.72,3.7 -1.7,7.33 -2.92,10.92l-5.8 16.63z"/>
   <path id="22" class="fil2" d="M1234.17 470.52l0 -7.2 6.58 0 0 7.2c6.73,0.39 12.05,2.56 15.94,6.53 3.91,3.98 5.85,8.9 5.85,14.78 0,5.77 -1.88,10.66 -5.66,14.7 -3.78,4.03 -9.15,6.26 -16.13,6.66l0 7.29 -6.58 0 0 -7.29c-6.25,-0.26 -11.46,-2.3 -15.62,-6.14 -4.16,-3.83 -6.25,-8.91 -6.25,-15.22 0,-6.32 2.09,-11.38 6.23,-15.18 4.16,-3.8 9.36,-5.84 15.64,-6.13zm6.58 6.42l0 29.84c4.52,-0.24 8.06,-1.65 10.66,-4.23 2.6,-2.59 3.89,-6.15 3.89,-10.69 0,-4.46 -1.27,-7.98 -3.82,-10.6 -2.54,-2.6 -6.11,-4.03 -10.73,-4.32zm-6.58 0.08c-4.36,0.21 -7.88,1.58 -10.57,4.14 -2.7,2.56 -4.06,6.12 -4.06,10.7 0,4.52 1.33,8.07 3.99,10.66 2.66,2.59 6.21,3.97 10.64,4.18l0 -29.68z"/>
   <polygon id="23" class="fil2" points="1271.36,520.48 1271.36,463.79 1309.55,463.79 1309.55,470.44 1278.38,470.44 1278.38,487.86 1307.56,487.86 1307.56,494.51 1278.38,494.51 1278.38,513.83 1310.81,513.83 1310.81,520.48 "/>
   <path id="24" class="fil2" d="M1325.29 463.79l32.21 0 0 50.04 4.73 0 0 19.87 -6.21 0 0 -13.22 -35.02 0 0 13.22 -6.2 0 0 -19.87 4.06 0c4.29,-6.89 6.43,-20.81 6.43,-41.75l0 -8.29zm25.19 6.65l-18.47 0 0 2.91c0,4.83 -0.4,11.44 -1.22,19.82 -0.8,8.37 -2.4,15.26 -4.76,20.66l24.45 0 0 -43.39z"/>
   <path id="25" class="fil2" d="M1368.37 492.89c0,-9.4 2.37,-16.76 7.08,-22.08 4.72,-5.31 10.8,-7.96 18.26,-7.96 4.89,0 9.29,1.25 13.21,3.74 3.92,2.5 6.91,5.98 8.97,10.45 2.05,4.46 3.09,9.53 3.09,15.19 0,5.74 -1.09,10.88 -3.25,15.41 -2.17,4.54 -5.24,7.97 -9.2,10.29 -3.98,2.34 -8.26,3.5 -12.86,3.5 -4.98,0 -9.43,-1.29 -13.35,-3.87 -3.92,-2.57 -6.9,-6.08 -8.92,-10.54 -2.02,-4.45 -3.03,-9.16 -3.03,-14.13zm7.24 0.13c0,6.82 1.71,12.19 5.14,16.11 3.42,3.92 7.72,5.89 12.89,5.89 5.27,0 9.59,-1.98 13,-5.94 3.4,-3.96 5.1,-9.58 5.1,-16.86 0,-4.61 -0.73,-8.63 -2.18,-12.06 -1.45,-3.43 -3.58,-6.1 -6.38,-7.99 -2.81,-1.88 -5.95,-2.83 -9.43,-2.83 -4.95,0 -9.21,1.82 -12.78,5.46 -3.57,3.64 -5.36,9.71 -5.36,18.22z"/>
   <path id="26" class="fil2" d="M1427.98 520.48l0 -56.69 19.97 0c3.51,0 6.19,0.19 8.05,0.55 2.6,0.46 4.78,1.34 6.54,2.63 1.76,1.31 3.18,3.13 4.25,5.47 1.07,2.33 1.6,4.91 1.6,7.72 0,4.8 -1.43,8.88 -4.3,12.2 -2.85,3.34 -8.04,5 -15.52,5l-13.57 0 0 23.12 -7.02 0zm7.02 -29.77l13.67 0c4.53,0 7.73,-0.9 9.64,-2.7 1.89,-1.81 2.84,-4.34 2.84,-7.63 0,-2.36 -0.55,-4.39 -1.68,-6.08 -1.11,-1.69 -2.59,-2.81 -4.41,-3.35 -1.19,-0.33 -3.37,-0.51 -6.53,-0.51l-13.53 0 0 20.27z"/>
   <path id="27" class="fil2" d="M1473.49 492.89c0,-9.4 2.36,-16.76 7.08,-22.08 4.71,-5.31 10.8,-7.96 18.26,-7.96 4.89,0 9.28,1.25 13.21,3.74 3.91,2.5 6.91,5.98 8.96,10.45 2.06,4.46 3.09,9.53 3.09,15.19 0,5.74 -1.08,10.88 -3.25,15.41 -2.16,4.54 -5.23,7.97 -9.19,10.29 -3.98,2.34 -8.27,3.5 -12.86,3.5 -4.99,0 -9.43,-1.29 -13.36,-3.87 -3.91,-2.57 -6.89,-6.08 -8.91,-10.54 -2.02,-4.45 -3.03,-9.16 -3.03,-14.13zm7.24 0.13c0,6.82 1.71,12.19 5.13,16.11 3.42,3.92 7.72,5.89 12.89,5.89 5.27,0 9.6,-1.98 13.01,-5.94 3.39,-3.96 5.09,-9.58 5.09,-16.86 0,-4.61 -0.72,-8.63 -2.18,-12.06 -1.45,-3.43 -3.58,-6.1 -6.37,-7.99 -2.81,-1.88 -5.95,-2.83 -9.44,-2.83 -4.94,0 -9.21,1.82 -12.78,5.46 -3.57,3.64 -5.35,9.71 -5.35,18.22z"/>
   <path id="28" class="fil2" d="M1532.8 520.48l0 -56.69 19.85 0c4.04,0 7.27,0.57 9.73,1.72 2.43,1.15 4.34,2.92 5.72,5.3 1.39,2.38 2.08,4.87 2.08,7.49 0,2.41 -0.61,4.69 -1.83,6.83 -1.22,2.14 -3.07,3.87 -5.54,5.19 3.2,1 5.66,2.71 7.37,5.14 1.73,2.42 2.59,5.28 2.59,8.58 0,2.66 -0.53,5.13 -1.58,7.41 -1.05,2.29 -2.34,4.04 -3.88,5.28 -1.54,1.23 -3.47,2.16 -5.78,2.8 -2.33,0.63 -5.18,0.95 -8.55,0.95l-20.18 0zm7.02 -32.86l11.44 0c3.1,0 5.33,-0.22 6.67,-0.66 1.79,-0.56 3.13,-1.51 4.03,-2.83 0.89,-1.32 1.35,-2.97 1.35,-4.96 0,-1.89 -0.42,-3.55 -1.27,-4.98 -0.84,-1.44 -2.04,-2.43 -3.6,-2.95 -1.57,-0.53 -4.25,-0.8 -8.04,-0.8l-10.58 0 0 17.18zm0 26.21l13.17 0c2.27,0 3.86,-0.09 4.78,-0.28 1.6,-0.3 2.96,-0.82 4.04,-1.54 1.08,-0.73 1.97,-1.78 2.67,-3.17 0.7,-1.38 1.05,-2.98 1.05,-4.79 0,-2.12 -0.51,-3.96 -1.53,-5.53 -1.01,-1.57 -2.41,-2.66 -4.21,-3.3 -1.79,-0.63 -4.37,-0.95 -7.73,-0.95l-12.24 0 0 19.56z"/>
   <path id="29" class="fil2" d="M1574.12 520.48l20.29 -56.69 7.7 0 21.54 56.69 -7.97 0 -6.12 -17.18 -22.28 0 -5.73 17.18 -7.43 0zm15.22 -23.28l18.03 0 -5.52 -15.71c-1.66,-4.78 -2.92,-8.72 -3.79,-11.84 -0.73,3.7 -1.7,7.33 -2.92,10.92l-5.8 16.63z"/>
   <polygon id="30" class="fil3 str2" points="70.57,463.79 76.93,463.79 76.93,508.68 105.08,463.79 112.02,463.79 112.02,520.48 105.66,520.48 105.66,475.71 77.58,520.48 70.57,520.48 "/>
   <path id="31" class="fil3 str2" d="M123.38 520.48l0 -56.69 10.49 0 12.51 40.13c1.16,3.73 2,6.53 2.53,8.39 0.6,-2.06 1.55,-5.09 2.83,-9.09l12.73 -39.43 9.37 0 0 56.69 -6.72 0 0 -47.42 -15.44 47.42 -6.31 0 -15.26 -48.29 0 48.29 -6.73 0z"/>
   <polygon id="32" class="fil3 str2" points="186.1,520.48 186.1,512.56 193.49,512.56 193.49,520.48 "/>
   <path id="33" class="fil3 str2" d="M220.32 520.48l20.29 -56.69 7.7 0 21.54 56.69 -7.97 0 -6.12 -17.18 -22.28 0 -5.73 17.18 -7.43 0zm15.22 -23.28l18.03 0 -5.52 -15.71c-1.66,-4.78 -2.92,-8.72 -3.79,-11.84 -0.73,3.7 -1.7,7.33 -2.92,10.92l-5.8 16.63z"/>
   <path id="34" class="fil3 str2" d="M275.55 463.79l7.01 0 0 24.86c3.19,0 5.45,-0.67 6.74,-2 1.31,-1.34 2.96,-4.53 4.97,-9.6 1.47,-3.73 2.68,-6.35 3.64,-7.88 0.95,-1.55 2.3,-2.84 4.06,-3.88 1.75,-1.05 3.69,-1.57 5.81,-1.57 2.7,0 4.11,0.02 4.26,0.07l0 6.5c-0.24,0 -0.71,-0.02 -1.4,-0.04 -0.78,-0.03 -1.25,-0.04 -1.42,-0.04 -2.23,0 -3.89,0.58 -4.97,1.74 -1.11,1.16 -2.37,3.64 -3.79,7.43 -1.78,4.8 -3.28,7.83 -4.51,9.09 -1.22,1.24 -2.7,2.24 -4.4,2.99 3.41,1.01 6.79,4.4 10.11,10.15l10.9 18.87 -8.69 0 -8.88 -15.36c-2.43,-4.26 -4.46,-7.19 -6.08,-8.77 -1.64,-1.6 -3.75,-2.39 -6.35,-2.39l0 26.52 -7.01 0 0 -56.69z"/>
   <path id="35" class="fil3 str2" d="M312.63 520.48l20.29 -56.69 7.7 0 21.54 56.69 -7.97 0 -6.12 -17.18 -22.27 0 -5.74 17.18 -7.43 0zm15.22 -23.28l18.03 0 -5.52 -15.71c-1.66,-4.78 -2.92,-8.72 -3.79,-11.84 -0.73,3.7 -1.7,7.33 -2.92,10.92l-5.8 16.63z"/>
   <path id="36" class="fil3 str2" d="M374.96 463.79l32.21 0 0 50.04 4.73 0 0 19.87 -6.21 0 0 -13.22 -35.01 0 0 13.22 -6.21 0 0 -19.87 4.06 0c4.29,-6.89 6.43,-20.81 6.43,-41.75l0 -8.29zm25.19 6.65l-18.47 0 0 2.91c0,4.83 -0.4,11.44 -1.21,19.82 -0.81,8.37 -2.41,15.26 -4.77,20.66l24.45 0 0 -43.39z"/>
   <polygon id="37" class="fil3 str2" points="420.33,520.48 420.33,463.79 458.53,463.79 458.53,470.44 427.35,470.44 427.35,487.86 456.53,487.86 456.53,494.51 427.35,494.51 427.35,513.83 459.78,513.83 459.78,520.48 "/>
   <path id="38" class="fil3 str2" d="M469.32 520.48l0 -56.69 10.49 0 12.51 40.13c1.15,3.73 1.99,6.53 2.52,8.39 0.6,-2.06 1.55,-5.09 2.83,-9.09l12.73 -39.43 9.37 0 0 56.69 -6.72 0 0 -47.42 -15.44 47.42 -6.3 0 -15.27 -48.29 0 48.29 -6.72 0z"/>
   <polygon id="39" class="fil3 str2" points="531.15,463.79 537.5,463.79 537.5,508.68 565.66,463.79 572.6,463.79 572.6,520.48 566.24,520.48 566.24,475.71 538.16,520.48 531.15,520.48 "/>
   <path id="40" class="fil3 str2" d="M584.26 463.79l7.02 0 0 24.86c3.18,0 5.44,-0.67 6.73,-2 1.3,-1.34 2.95,-4.53 4.97,-9.6 1.47,-3.73 2.68,-6.35 3.64,-7.88 0.94,-1.55 2.3,-2.84 4.06,-3.88 1.75,-1.05 3.69,-1.57 5.81,-1.57 2.7,0 4.11,0.02 4.26,0.07l0 6.5c-0.24,0 -0.71,-0.02 -1.4,-0.04 -0.78,-0.03 -1.25,-0.04 -1.42,-0.04 -2.23,0 -3.89,0.58 -4.97,1.74 -1.11,1.16 -2.37,3.64 -3.79,7.43 -1.78,4.8 -3.28,7.83 -4.51,9.09 -1.22,1.24 -2.7,2.24 -4.4,2.99 3.41,1.01 6.79,4.4 10.11,10.15l10.9 18.87 -8.69 0 -8.88 -15.36c-2.43,-4.26 -4.46,-7.19 -6.08,-8.77 -1.64,-1.6 -3.75,-2.39 -6.34,-2.39l0 26.52 -7.02 0 0 -56.69z"/>
   <path id="41" class="fil3 str2" d="M621.34 520.48l20.3 -56.69 7.69 0 21.54 56.69 -7.97 0 -6.12 -17.18 -22.27 0 -5.74 17.18 -7.43 0zm15.22 -23.28l18.03 0 -5.52 -15.71c-1.66,-4.78 -2.92,-8.72 -3.79,-11.84 -0.73,3.7 -1.7,7.33 -2.92,10.92l-5.8 16.63z"/>
   <path id="42" class="fil3 str2" d="M734.62 500.59l7.02 1.9c-1.46,6.17 -4.1,10.85 -7.9,14.08 -3.81,3.24 -8.46,4.86 -13.97,4.86 -5.68,0 -10.31,-1.24 -13.89,-3.74 -3.57,-2.48 -6.27,-6.08 -8.14,-10.79 -1.85,-4.72 -2.79,-9.78 -2.79,-15.19 0,-5.89 1.05,-11.04 3.15,-15.43 2.11,-4.4 5.1,-7.73 8.98,-10.02 3.88,-2.28 8.15,-3.41 12.8,-3.41 5.3,0 9.74,1.43 13.34,4.32 3.61,2.89 6.12,6.94 7.53,12.17l-6.87 1.74c-1.21,-4.12 -3,-7.13 -5.33,-9 -2.32,-1.89 -5.25,-2.82 -8.79,-2.82 -4.05,0 -7.45,1.04 -10.17,3.12 -2.72,2.09 -4.64,4.9 -5.74,8.41 -1.11,3.52 -1.66,7.15 -1.66,10.88 0,4.82 0.65,9.03 1.96,12.62 1.3,3.6 3.34,6.28 6.09,8.06 2.76,1.78 5.74,2.67 8.95,2.67 3.92,0 7.22,-1.22 9.93,-3.63 2.71,-2.43 4.54,-6.02 5.5,-10.8z"/>
   <path id="43" class="fil3 str2" d="M750 520.48l0 -56.69 19.85 0c4.04,0 7.28,0.57 9.73,1.72 2.44,1.15 4.34,2.92 5.72,5.3 1.39,2.38 2.08,4.87 2.08,7.49 0,2.41 -0.61,4.69 -1.83,6.83 -1.22,2.14 -3.07,3.87 -5.54,5.19 3.2,1 5.66,2.71 7.37,5.14 1.73,2.42 2.59,5.28 2.59,8.58 0,2.66 -0.53,5.13 -1.58,7.41 -1.04,2.29 -2.34,4.04 -3.88,5.28 -1.53,1.23 -3.47,2.16 -5.78,2.8 -2.33,0.63 -5.17,0.95 -8.55,0.95l-20.18 0zm7.02 -32.86l11.44 0c3.1,0 5.33,-0.22 6.67,-0.66 1.79,-0.56 3.13,-1.51 4.03,-2.83 0.9,-1.32 1.35,-2.97 1.35,-4.96 0,-1.89 -0.42,-3.55 -1.27,-4.98 -0.83,-1.44 -2.04,-2.43 -3.6,-2.95 -1.57,-0.53 -4.25,-0.8 -8.04,-0.8l-10.58 0 0 17.18zm0 26.21l13.17 0c2.27,0 3.86,-0.09 4.78,-0.28 1.6,-0.3 2.96,-0.82 4.04,-1.54 1.08,-0.73 1.97,-1.78 2.67,-3.17 0.7,-1.38 1.05,-2.98 1.05,-4.79 0,-2.12 -0.51,-3.96 -1.53,-5.53 -1.01,-1.57 -2.41,-2.66 -4.21,-3.3 -1.78,-0.63 -4.37,-0.95 -7.73,-0.95l-12.24 0 0 19.56z"/>
   <path id="44" class="fil3 str2" d="M838.94 520.48l0 -56.69 -23.45 0c-4.71,0 -8.28,0.52 -10.73,1.54 -2.45,1.01 -4.41,2.81 -5.88,5.38 -1.46,2.57 -2.2,5.42 -2.2,8.54 0,4.02 1.22,7.41 3.65,10.17 2.42,2.76 6.16,4.5 11.24,5.25 -1.86,0.95 -3.27,1.9 -4.23,2.82 -2.04,2.01 -3.97,4.53 -5.78,7.55l-9.15 15.44 8.74 0 6.99 -11.8c2.04,-3.42 3.72,-6.01 5.04,-7.82 1.33,-1.81 2.51,-3.06 3.56,-3.79 1.03,-0.71 2.1,-1.21 3.19,-1.5 0.78,-0.17 2.08,-0.27 3.89,-0.27l8.1 0 0 25.18 7.02 0zm-7.02 -31.67l-15.02 0c-3.2,0 -5.69,-0.35 -7.49,-1.07 -1.8,-0.7 -3.16,-1.83 -4.09,-3.4 -0.93,-1.56 -1.4,-3.25 -1.4,-5.08 0,-2.68 0.9,-4.9 2.71,-6.62 1.81,-1.73 4.67,-2.59 8.57,-2.59l16.72 0 0 18.76z"/>
   <polygon id="45" class="fil3 str2" points="863.92,520.48 863.92,470.44 846.49,470.44 846.49,463.79 888.37,463.79 888.37,470.44 870.94,470.44 870.94,520.48 "/>
   <path id="46" class="fil3 str2" d="M890.14 492.89c0,-9.4 2.36,-16.76 7.07,-22.08 4.72,-5.31 10.8,-7.96 18.26,-7.96 4.89,0 9.29,1.25 13.22,3.74 3.91,2.5 6.9,5.98 8.96,10.45 2.06,4.46 3.09,9.53 3.09,15.19 0,5.74 -1.08,10.88 -3.25,15.41 -2.17,4.54 -5.23,7.97 -9.2,10.29 -3.97,2.34 -8.26,3.5 -12.85,3.5 -4.99,0 -9.43,-1.29 -13.36,-3.87 -3.92,-2.57 -6.9,-6.08 -8.92,-10.54 -2.02,-4.45 -3.02,-9.16 -3.02,-14.13zm7.24 0.13c0,6.82 1.71,12.19 5.13,16.11 3.42,3.92 7.72,5.89 12.89,5.89 5.27,0 9.59,-1.98 13,-5.94 3.4,-3.96 5.1,-9.58 5.1,-16.86 0,-4.61 -0.72,-8.63 -2.18,-12.06 -1.45,-3.43 -3.58,-6.1 -6.38,-7.99 -2.8,-1.88 -5.94,-2.83 -9.43,-2.83 -4.95,0 -9.21,1.82 -12.78,5.46 -3.57,3.64 -5.35,9.71 -5.35,18.22z"/>
   <path id="47" class="fil3 str2" d="M987.42 500.59l7.02 1.9c-1.47,6.17 -4.1,10.85 -7.91,14.08 -3.8,3.24 -8.46,4.86 -13.96,4.86 -5.69,0 -10.32,-1.24 -13.89,-3.74 -3.57,-2.48 -6.28,-6.08 -8.14,-10.79 -1.86,-4.72 -2.79,-9.78 -2.79,-15.19 0,-5.89 1.04,-11.04 3.15,-15.43 2.11,-4.4 5.1,-7.73 8.98,-10.02 3.87,-2.28 8.15,-3.41 12.8,-3.41 5.3,0 9.74,1.43 13.34,4.32 3.6,2.89 6.12,6.94 7.53,12.17l-6.87 1.74c-1.22,-4.12 -3,-7.13 -5.33,-9 -2.33,-1.89 -5.26,-2.82 -8.79,-2.82 -4.05,0 -7.45,1.04 -10.17,3.12 -2.72,2.09 -4.64,4.9 -5.74,8.41 -1.11,3.52 -1.66,7.15 -1.66,10.88 0,4.82 0.65,9.03 1.95,12.62 1.31,3.6 3.34,6.28 6.1,8.06 2.76,1.78 5.74,2.67 8.95,2.67 3.92,0 7.22,-1.22 9.93,-3.63 2.71,-2.43 4.54,-6.02 5.5,-10.8z"/>
   <path id="48" class="fil3 str2" d="M1004.56 463.79l33.02 0 0 56.69 -7.02 0 0 -50.04 -18.98 0 0 29.2c0,5.94 -0.26,10.28 -0.78,13.04 -0.52,2.77 -1.61,4.91 -3.27,6.45 -1.67,1.53 -3.78,2.3 -6.33,2.3 -1.55,0 -3.41,-0.34 -5.58,-1.03l1.26 -6.65c1.14,0.63 2.13,0.95 2.94,0.95 1.58,0 2.77,-0.63 3.56,-1.91 0.79,-1.28 1.18,-4.29 1.18,-9.04l0 -39.96z"/>
   <path id="49" class="fil3 str2" d="M1043.33 520.48l20.29 -56.69 7.7 0 21.54 56.69 -7.97 0 -6.12 -17.18 -22.27 0 -5.74 17.18 -7.43 0zm15.22 -23.28l18.03 0 -5.52 -15.71c-1.66,-4.78 -2.92,-8.72 -3.79,-11.84 -0.73,3.7 -1.7,7.33 -2.92,10.92l-5.8 16.63z"/>
   <path id="50" class="fil3 str2" d="M1098.11 520.48l0 -56.69 19.85 0c4.04,0 7.28,0.57 9.73,1.72 2.44,1.15 4.35,2.92 5.72,5.3 1.4,2.38 2.08,4.87 2.08,7.49 0,2.41 -0.61,4.69 -1.83,6.83 -1.22,2.14 -3.06,3.87 -5.54,5.19 3.2,1 5.66,2.71 7.37,5.14 1.73,2.42 2.59,5.28 2.59,8.58 0,2.66 -0.53,5.13 -1.58,7.41 -1.04,2.29 -2.33,4.04 -3.87,5.28 -1.54,1.23 -3.48,2.16 -5.79,2.8 -2.33,0.63 -5.17,0.95 -8.55,0.95l-20.18 0zm7.02 -32.86l11.44 0c3.1,0 5.33,-0.22 6.67,-0.66 1.79,-0.56 3.13,-1.51 4.03,-2.83 0.9,-1.32 1.36,-2.97 1.36,-4.96 0,-1.89 -0.42,-3.55 -1.27,-4.98 -0.84,-1.44 -2.05,-2.43 -3.61,-2.95 -1.56,-0.53 -4.25,-0.8 -8.04,-0.8l-10.58 0 0 17.18zm0 26.21l13.18 0c2.26,0 3.85,-0.09 4.78,-0.28 1.6,-0.3 2.95,-0.82 4.03,-1.54 1.09,-0.73 1.97,-1.78 2.67,-3.17 0.71,-1.38 1.05,-2.98 1.05,-4.79 0,-2.12 -0.5,-3.96 -1.53,-5.53 -1.01,-1.57 -2.41,-2.66 -4.21,-3.3 -1.78,-0.63 -4.37,-0.95 -7.73,-0.95l-12.24 0 0 19.56z"/>
   <path id="51" class="fil3 str2" d="M1139.44 520.48l20.29 -56.69 7.69 0 21.54 56.69 -7.97 0 -6.12 -17.18 -22.27 0 -5.74 17.18 -7.42 0zm15.21 -23.28l18.03 0 -5.51 -15.71c-1.67,-4.78 -2.92,-8.72 -3.8,-11.84 -0.72,3.7 -1.7,7.33 -2.92,10.92l-5.8 16.63z"/>
   <path id="52" class="fil3 str2" d="M1234.17 470.52l0 -7.2 6.58 0 0 7.2c6.73,0.39 12.05,2.56 15.94,6.53 3.91,3.98 5.85,8.9 5.85,14.78 0,5.77 -1.88,10.66 -5.66,14.7 -3.78,4.03 -9.15,6.26 -16.13,6.66l0 7.29 -6.58 0 0 -7.29c-6.25,-0.26 -11.46,-2.3 -15.62,-6.14 -4.16,-3.83 -6.25,-8.91 -6.25,-15.22 0,-6.32 2.09,-11.38 6.23,-15.18 4.16,-3.8 9.36,-5.84 15.64,-6.13zm6.58 6.42l0 29.84c4.52,-0.24 8.06,-1.65 10.66,-4.23 2.6,-2.59 3.89,-6.15 3.89,-10.69 0,-4.46 -1.27,-7.98 -3.82,-10.6 -2.54,-2.6 -6.11,-4.03 -10.73,-4.32zm-6.58 0.08c-4.36,0.21 -7.88,1.58 -10.57,4.14 -2.7,2.56 -4.06,6.12 -4.06,10.7 0,4.52 1.33,8.07 3.99,10.66 2.66,2.59 6.21,3.97 10.64,4.18l0 -29.68z"/>
   <polygon id="53" class="fil3 str2" points="1271.36,520.48 1271.36,463.79 1309.55,463.79 1309.55,470.44 1278.38,470.44 1278.38,487.86 1307.56,487.86 1307.56,494.51 1278.38,494.51 1278.38,513.83 1310.81,513.83 1310.81,520.48 "/>
   <path id="54" class="fil3 str2" d="M1325.29 463.79l32.21 0 0 50.04 4.73 0 0 19.87 -6.21 0 0 -13.22 -35.02 0 0 13.22 -6.2 0 0 -19.87 4.06 0c4.29,-6.89 6.43,-20.81 6.43,-41.75l0 -8.29zm25.19 6.65l-18.47 0 0 2.91c0,4.83 -0.4,11.44 -1.22,19.82 -0.8,8.37 -2.4,15.26 -4.76,20.66l24.45 0 0 -43.39z"/>
   <path id="55" class="fil3 str2" d="M1368.37 492.89c0,-9.4 2.37,-16.76 7.08,-22.08 4.72,-5.31 10.8,-7.96 18.26,-7.96 4.89,0 9.29,1.25 13.21,3.74 3.92,2.5 6.91,5.98 8.97,10.45 2.05,4.46 3.09,9.53 3.09,15.19 0,5.74 -1.09,10.88 -3.25,15.41 -2.17,4.54 -5.24,7.97 -9.2,10.29 -3.98,2.34 -8.26,3.5 -12.86,3.5 -4.98,0 -9.43,-1.29 -13.35,-3.87 -3.92,-2.57 -6.9,-6.08 -8.92,-10.54 -2.02,-4.45 -3.03,-9.16 -3.03,-14.13zm7.24 0.13c0,6.82 1.71,12.19 5.14,16.11 3.42,3.92 7.72,5.89 12.89,5.89 5.27,0 9.59,-1.98 13,-5.94 3.4,-3.96 5.1,-9.58 5.1,-16.86 0,-4.61 -0.73,-8.63 -2.18,-12.06 -1.45,-3.43 -3.58,-6.1 -6.38,-7.99 -2.81,-1.88 -5.95,-2.83 -9.43,-2.83 -4.95,0 -9.21,1.82 -12.78,5.46 -3.57,3.64 -5.36,9.71 -5.36,18.22z"/>
   <path id="56" class="fil3 str2" d="M1427.98 520.48l0 -56.69 19.97 0c3.51,0 6.19,0.19 8.05,0.55 2.6,0.46 4.78,1.34 6.54,2.63 1.76,1.31 3.18,3.13 4.25,5.47 1.07,2.33 1.6,4.91 1.6,7.72 0,4.8 -1.43,8.88 -4.3,12.2 -2.85,3.34 -8.04,5 -15.52,5l-13.57 0 0 23.12 -7.02 0zm7.02 -29.77l13.67 0c4.53,0 7.73,-0.9 9.64,-2.7 1.89,-1.81 2.84,-4.34 2.84,-7.63 0,-2.36 -0.55,-4.39 -1.68,-6.08 -1.11,-1.69 -2.59,-2.81 -4.41,-3.35 -1.19,-0.33 -3.37,-0.51 -6.53,-0.51l-13.53 0 0 20.27z"/>
   <path id="57" class="fil3 str2" d="M1473.49 492.89c0,-9.4 2.36,-16.76 7.08,-22.08 4.71,-5.31 10.8,-7.96 18.26,-7.96 4.89,0 9.28,1.25 13.21,3.74 3.91,2.5 6.91,5.98 8.96,10.45 2.06,4.46 3.09,9.53 3.09,15.19 0,5.74 -1.08,10.88 -3.25,15.41 -2.16,4.54 -5.23,7.97 -9.19,10.29 -3.98,2.34 -8.27,3.5 -12.86,3.5 -4.99,0 -9.43,-1.29 -13.36,-3.87 -3.91,-2.57 -6.89,-6.08 -8.91,-10.54 -2.02,-4.45 -3.03,-9.16 -3.03,-14.13zm7.24 0.13c0,6.82 1.71,12.19 5.13,16.11 3.42,3.92 7.72,5.89 12.89,5.89 5.27,0 9.6,-1.98 13.01,-5.94 3.39,-3.96 5.09,-9.58 5.09,-16.86 0,-4.61 -0.72,-8.63 -2.18,-12.06 -1.45,-3.43 -3.58,-6.1 -6.37,-7.99 -2.81,-1.88 -5.95,-2.83 -9.44,-2.83 -4.94,0 -9.21,1.82 -12.78,5.46 -3.57,3.64 -5.35,9.71 -5.35,18.22z"/>
   <path id="58" class="fil3 str2" d="M1532.8 520.48l0 -56.69 19.85 0c4.04,0 7.27,0.57 9.73,1.72 2.43,1.15 4.34,2.92 5.72,5.3 1.39,2.38 2.08,4.87 2.08,7.49 0,2.41 -0.61,4.69 -1.83,6.83 -1.22,2.14 -3.07,3.87 -5.54,5.19 3.2,1 5.66,2.71 7.37,5.14 1.73,2.42 2.59,5.28 2.59,8.58 0,2.66 -0.53,5.13 -1.58,7.41 -1.05,2.29 -2.34,4.04 -3.88,5.28 -1.54,1.23 -3.47,2.16 -5.78,2.8 -2.33,0.63 -5.18,0.95 -8.55,0.95l-20.18 0zm7.02 -32.86l11.44 0c3.1,0 5.33,-0.22 6.67,-0.66 1.79,-0.56 3.13,-1.51 4.03,-2.83 0.89,-1.32 1.35,-2.97 1.35,-4.96 0,-1.89 -0.42,-3.55 -1.27,-4.98 -0.84,-1.44 -2.04,-2.43 -3.6,-2.95 -1.57,-0.53 -4.25,-0.8 -8.04,-0.8l-10.58 0 0 17.18zm0 26.21l13.17 0c2.27,0 3.86,-0.09 4.78,-0.28 1.6,-0.3 2.96,-0.82 4.04,-1.54 1.08,-0.73 1.97,-1.78 2.67,-3.17 0.7,-1.38 1.05,-2.98 1.05,-4.79 0,-2.12 -0.51,-3.96 -1.53,-5.53 -1.01,-1.57 -2.41,-2.66 -4.21,-3.3 -1.79,-0.63 -4.37,-0.95 -7.73,-0.95l-12.24 0 0 19.56z"/>
   <path id="59" class="fil3 str2" d="M1574.12 520.48l20.29 -56.69 7.7 0 21.54 56.69 -7.97 0 -6.12 -17.18 -22.28 0 -5.73 17.18 -7.43 0zm15.22 -23.28l18.03 0 -5.52 -15.71c-1.66,-4.78 -2.92,-8.72 -3.79,-11.84 -0.73,3.7 -1.7,7.33 -2.92,10.92l-5.8 16.63z"/>
  </g>
 </g>
</svg>
