<?xml version="1.0" encoding="UTF-8"?>
<!DOCTYPE svg PUBLIC "-//W3C//DTD SVG 1.1//EN" "http://www.w3.org/Graphics/SVG/1.1/DTD/svg11.dtd">

<svg xmlns="http://www.w3.org/2000/svg" xml:space="preserve"  version="1.1" style="shape-rendering:geometricPrecision; text-rendering:geometricPrecision; image-rendering:optimizeQuality; fill-rule:evenodd; clip-rule:evenodd"
viewBox="0 0 120 120"
 xmlns:xlink="http://www.w3.org/1999/xlink">
 <defs>
  <style type="text/css">
   <![CDATA[
    .str0 {stroke:#2B2A29;stroke-width:3.54;stroke-miterlimit:22.9256}
    .fil0 {fill:none}
   ]]>
  </style>
 </defs>
 <g id="Слой_x0020_1">
  <g id="_2786745986800">
   <path class="fil0 str0" d="M26.45 11.81l22.19 26.44c-3.59,3.28 -7.19,6.53 -10.78,9.78 -3.81,3.66 -3.27,8.26 1.15,12.76 8.97,9 10.2,10.5 20.04,18.53 3.97,3.82 8.16,4.13 12.24,0.26l10.7 -8.95 25.65 21.15c-3.75,4.63 -6.03,7.7 -10.65,11.83 -6.95,6.2 -24.56,7.88 -39.42,-6.49l-33.41 -32.05c-14.07,-15.45 -14.22,-31.64 -7.45,-42.51 4.44,-5.41 4.32,-5.61 9.74,-10.75z"/>
   <path class="fil0 str0" d="M61.39 31.38c13.28,1.82 25.01,11.56 26.85,27.28"/>
   <path class="fil0 str0" d="M62.11 17.53c16.67,-0.52 38.01,14.25 39.35,39.91"/>
  </g>
 </g>
</svg>
