<svg id="Layer_1" data-name="Layer 1" xmlns="http://www.w3.org/2000/svg" xmlns:xlink="http://www.w3.org/1999/xlink" viewBox="0 0 210 40"><defs><style>.cls-1{fill:#a2c937;}.cls-2{font-size:12.66px;font-family:Ubuntu-Bold, Ubuntu;font-weight:700;}.cls-2,.cls-6{fill:#fff;}.cls-3{letter-spacing:-0.04em;}.cls-4{letter-spacing:-0.01em;}.cls-5{fill:none;stroke-miterlimit:10;stroke:url(#linear-gradient);}</style><linearGradient id="linear-gradient" x1="50" y1="31.41" x2="50" y2="10.58" gradientUnits="userSpaceOnUse"><stop offset="0" stop-color="#fff" stop-opacity="0"/><stop offset="0.05" stop-color="#fff" stop-opacity="0.17"/><stop offset="0.12" stop-color="#fff" stop-opacity="0.38"/><stop offset="0.19" stop-color="#fff" stop-opacity="0.57"/><stop offset="0.26" stop-color="#fff" stop-opacity="0.73"/><stop offset="0.32" stop-color="#fff" stop-opacity="0.85"/><stop offset="0.39" stop-color="#fff" stop-opacity="0.93"/><stop offset="0.45" stop-color="#fff" stop-opacity="0.98"/><stop offset="0.51" stop-color="#fff"/><stop offset="0.64" stop-color="#fff" stop-opacity="0.99"/><stop offset="0.71" stop-color="#fff" stop-opacity="0.96"/><stop offset="0.76" stop-color="#fff" stop-opacity="0.91"/><stop offset="0.81" stop-color="#fff" stop-opacity="0.83"/><stop offset="0.85" stop-color="#fff" stop-opacity="0.74"/><stop offset="0.88" stop-color="#fff" stop-opacity="0.62"/><stop offset="0.92" stop-color="#fff" stop-opacity="0.47"/><stop offset="0.95" stop-color="#fff" stop-opacity="0.31"/><stop offset="0.98" stop-color="#fff" stop-opacity="0.13"/><stop offset="1" stop-color="#fff" stop-opacity="0"/></linearGradient></defs><title>button_card_1</title><rect class="cls-1" width="210" height="40" rx="5" ry="5"/><text class="cls-2" transform="translate(61.5 17.93) scale(1.11 1)">Оплатить <tspan x="0" y="12.66">бан</tspan><tspan class="cls-3" x="22.11" y="12.66">к</tspan><tspan x="29.08" y="12.66">овс</tspan><tspan class="cls-3" x="50.66" y="12.66">к</tspan><tspan x="57.62" y="12.66">ой </tspan><tspan class="cls-4" x="76.18" y="12.66">к</tspan><tspan x="83.47" y="12.66">артой</tspan></text><line class="cls-5" x1="50" y1="10.58" x2="50" y2="31.41"/><path class="cls-6" d="M33.79,13.11H16.3a2.3,2.3,0,0,0-2.3,2.3V25.53a2.31,2.31,0,0,0,2.3,2.31H33.79a2.31,2.31,0,0,0,2.3-2.31V15.41A2.3,2.3,0,0,0,33.79,13.11Zm1.38,12.42a1.38,1.38,0,0,1-1.38,1.39H16.3a1.38,1.38,0,0,1-1.38-1.39V15.41A1.38,1.38,0,0,1,16.3,14H33.79a1.38,1.38,0,0,1,1.38,1.38V25.53Z"/><path class="cls-6" d="M35.63,15.87H14.46a.46.46,0,0,0-.46.46v2.76a.47.47,0,0,0,.46.46H35.63a.46.46,0,0,0,.46-.46V16.33A.45.45,0,0,0,35.63,15.87Zm-.46,2.76H14.92V16.79H35.17v1.84Z"/><path class="cls-6" d="M22.75,22.31H17.22a.47.47,0,0,0-.46.46.46.46,0,0,0,.46.46h5.53a.46.46,0,0,0,.46-.46A.47.47,0,0,0,22.75,22.31Z"/><path class="cls-6" d="M22.75,24.15H17.22a.47.47,0,0,0-.46.46.46.46,0,0,0,.46.46h5.53a.46.46,0,0,0,.46-.46A.47.47,0,0,0,22.75,24.15Z"/><path class="cls-6" d="M32,21.39H31a1.38,1.38,0,0,0-1.38,1.38v.92A1.38,1.38,0,0,0,31,25.07H32a1.38,1.38,0,0,0,1.38-1.38v-.92A1.38,1.38,0,0,0,32,21.39Zm.46,2.3a.46.46,0,0,1-.46.46H31a.46.46,0,0,1-.46-.46v-.92a.47.47,0,0,1,.46-.46H32a.47.47,0,0,1,.46.46Z"/></svg>