<svg id="Layer_1" data-name="Layer 1" xmlns="http://www.w3.org/2000/svg" xmlns:xlink="http://www.w3.org/1999/xlink" viewBox="0 0 210 40"><defs><style>.cls-1{fill:#a2c937;}.cls-2{fill:#fff;}.cls-3{fill:none;stroke-miterlimit:10;stroke:url(#linear-gradient);}</style><linearGradient id="linear-gradient" x1="50" y1="31.41" x2="50" y2="10.58" gradientUnits="userSpaceOnUse"><stop offset="0" stop-color="#fff" stop-opacity="0"/><stop offset="0.05" stop-color="#fff" stop-opacity="0.17"/><stop offset="0.12" stop-color="#fff" stop-opacity="0.38"/><stop offset="0.19" stop-color="#fff" stop-opacity="0.57"/><stop offset="0.26" stop-color="#fff" stop-opacity="0.73"/><stop offset="0.32" stop-color="#fff" stop-opacity="0.85"/><stop offset="0.39" stop-color="#fff" stop-opacity="0.93"/><stop offset="0.45" stop-color="#fff" stop-opacity="0.98"/><stop offset="0.51" stop-color="#fff"/><stop offset="0.64" stop-color="#fff" stop-opacity="0.99"/><stop offset="0.71" stop-color="#fff" stop-opacity="0.96"/><stop offset="0.76" stop-color="#fff" stop-opacity="0.91"/><stop offset="0.81" stop-color="#fff" stop-opacity="0.83"/><stop offset="0.85" stop-color="#fff" stop-opacity="0.74"/><stop offset="0.88" stop-color="#fff" stop-opacity="0.62"/><stop offset="0.92" stop-color="#fff" stop-opacity="0.47"/><stop offset="0.95" stop-color="#fff" stop-opacity="0.31"/><stop offset="0.98" stop-color="#fff" stop-opacity="0.13"/><stop offset="1" stop-color="#fff" stop-opacity="0"/></linearGradient></defs><title>button_card_1</title><rect class="cls-1" width="210" height="40" rx="5" ry="5"/><path class="cls-2" d="M71.86,13.54a4.89,4.89,0,0,1-.37,2,4.14,4.14,0,0,1-1,1.43,4.43,4.43,0,0,1-1.53.87,6.21,6.21,0,0,1-1.91.29,6.11,6.11,0,0,1-1.88-.29A4.66,4.66,0,0,1,63.61,17a4.17,4.17,0,0,1-1-1.43,4.89,4.89,0,0,1-.38-2,4.73,4.73,0,0,1,.39-2,4.28,4.28,0,0,1,1.06-1.44,4.34,4.34,0,0,1,1.54-.87A5.63,5.63,0,0,1,67,9a5.83,5.83,0,0,1,1.88.3,4.34,4.34,0,0,1,1.54.87,4.21,4.21,0,0,1,1,1.44A4.89,4.89,0,0,1,71.86,13.54Zm-7.41,0a3.49,3.49,0,0,0,.18,1.16,2.57,2.57,0,0,0,.5.89,2.27,2.27,0,0,0,.81.58,2.86,2.86,0,0,0,1.09.2,2.94,2.94,0,0,0,1.09-.2,2.27,2.27,0,0,0,.81-.58,2.57,2.57,0,0,0,.5-.89,3.49,3.49,0,0,0,.18-1.16,3.59,3.59,0,0,0-.18-1.17,2.62,2.62,0,0,0-.5-.9,2.27,2.27,0,0,0-.81-.58,2.94,2.94,0,0,0-1.09-.2,2.68,2.68,0,0,0-1.09.21,2.27,2.27,0,0,0-.81.58,2.62,2.62,0,0,0-.5.9A3.53,3.53,0,0,0,64.45,13.54Z"/><path class="cls-2" d="M79.88,11.27v6.66H77.8V12.84H75.63v5.09H73.54V11.27Z"/><path class="cls-2" d="M85.15,12.81c0,.25,0,.51,0,.78a7.77,7.77,0,0,1-.08.83,7,7,0,0,1-.14.8,4.81,4.81,0,0,1-.23.73,4,4,0,0,1-.43.76,2.62,2.62,0,0,1-.66.62,3.81,3.81,0,0,1-1,.47,5.78,5.78,0,0,1-1.32.24L81,16.47a3.14,3.14,0,0,0,1.11-.36,1.55,1.55,0,0,0,.59-.6,3.29,3.29,0,0,0,.24-.73,6,6,0,0,0,.13-.88c0-.31.05-.62.05-1s0-.62,0-.92v-.76h5.53v6.66H86.57V12.81Z"/><path class="cls-2" d="M93.27,11.09a5.57,5.57,0,0,1,1.54.19,2.37,2.37,0,0,1,1,.55,2,2,0,0,1,.53.86,3.94,3.94,0,0,1,.15,1.12v3.93L95.23,18a13.4,13.4,0,0,1-1.94.12A6.43,6.43,0,0,1,92,18a2.89,2.89,0,0,1-1-.37,1.77,1.77,0,0,1-.65-.68,2.11,2.11,0,0,1-.22-1,1.82,1.82,0,0,1,.26-1,1.85,1.85,0,0,1,.69-.64,3.28,3.28,0,0,1,1-.35,6.25,6.25,0,0,1,1.16-.11q.41,0,.72,0a3.94,3.94,0,0,1,.51.08v-.17a1,1,0,0,0-.32-.78A1.71,1.71,0,0,0,93,12.66a9,9,0,0,0-1,.07,4.65,4.65,0,0,0-.9.2l-.26-1.52.45-.11.6-.1.67-.07A5.85,5.85,0,0,1,93.27,11.09Zm.16,5.52H94a3.93,3.93,0,0,0,.45,0V15.13l-.38-.05a3.78,3.78,0,0,0-.46,0,4.68,4.68,0,0,0-.55,0,1.47,1.47,0,0,0-.46.12.83.83,0,0,0-.31.24.66.66,0,0,0-.11.38.63.63,0,0,0,.33.61A1.9,1.9,0,0,0,93.43,16.61Z"/><path class="cls-2" d="M104.45,12.81H102.1v5.12H100V12.81H97.66V11.27h6.79Z"/><path class="cls-2" d="M112.42,11.27v6.66h-2.1c0-.42,0-.84,0-1.26s0-.8,0-1.16,0-.66,0-.93,0-.46,0-.59l-.82,1c-.27.36-.53.71-.77,1.05l-.7,1c-.22.31-.42.6-.58.86h-1.84V11.27h2.09c0,.42,0,.83,0,1.21s0,.73,0,1,0,.59,0,.82,0,.41,0,.54c.56-.74,1.07-1.41,1.54-2s.94-1.13,1.38-1.61Z"/><path class="cls-2" d="M120.47,12.81h-2.35v5.12H116V12.81h-2.35V11.27h6.79Z"/><path class="cls-2" d="M123.81,13.64a2.74,2.74,0,0,1,.51-.08,5.2,5.2,0,0,1,.72,0,5.32,5.32,0,0,1,1.23.14,3.19,3.19,0,0,1,1,.43,2.07,2.07,0,0,1,.66.72,2.19,2.19,0,0,1,.23,1,2.08,2.08,0,0,1-.22,1,1.79,1.79,0,0,1-.64.7,3.29,3.29,0,0,1-1,.41,6.33,6.33,0,0,1-1.29.13c-.62,0-1.18,0-1.7-.08s-1-.15-1.56-.26V11.27h2.08Zm1,3a1.77,1.77,0,0,0,.9-.19.69.69,0,0,0,.33-.64.71.71,0,0,0-.11-.39.86.86,0,0,0-.31-.25,1.49,1.49,0,0,0-.45-.14,5,5,0,0,0-.56,0l-.46,0-.38,0v1.52a3.93,3.93,0,0,0,.45,0Z"/><path class="cls-2" d="M68.91,22.37a7.69,7.69,0,0,1-1,.14l-1,.12a5.08,5.08,0,0,0-.84.19,3.34,3.34,0,0,0-.77.34,2.59,2.59,0,0,0-.63.56,2,2,0,0,0-.37.83,4.42,4.42,0,0,1,1.76-.39,3.64,3.64,0,0,1,1.25.2,2.93,2.93,0,0,1,1,.61A2.84,2.84,0,0,1,69,26a3.8,3.8,0,0,1,.24,1.4,3.65,3.65,0,0,1-.28,1.5,2.9,2.9,0,0,1-.76,1.05,3,3,0,0,1-1.12.64,4.3,4.3,0,0,1-1.36.2A3.34,3.34,0,0,1,63,29.7a5.05,5.05,0,0,1-.84-3.15,8.15,8.15,0,0,1,.29-2.32,3.94,3.94,0,0,1,2.34-2.6,9.89,9.89,0,0,1,2-.59c.31-.06.62-.1.93-.13a8.64,8.64,0,0,0,1-.15Zm-4.6,3.72c0,.12,0,.26,0,.41s0,.29,0,.4a3.3,3.3,0,0,0,.35,1.69,1.42,1.42,0,0,0,2.2.09,2.48,2.48,0,0,0,.28-1.91,1.36,1.36,0,0,0-.27-.52,1.3,1.3,0,0,0-.44-.37,1.39,1.39,0,0,0-.63-.14,3.48,3.48,0,0,0-.77.08A1.8,1.8,0,0,0,64.31,26.09Z"/><path class="cls-2" d="M73.54,23.75a5.52,5.52,0,0,1,1.54.19,2.48,2.48,0,0,1,1,.55,1.94,1.94,0,0,1,.52.86,3.88,3.88,0,0,1,.16,1.12V30.4l-1.25.21a13.26,13.26,0,0,1-1.93.12,6.46,6.46,0,0,1-1.3-.12,3,3,0,0,1-1-.37,1.74,1.74,0,0,1-.64-.68,2.13,2.13,0,0,1-.23-1,1.82,1.82,0,0,1,.26-1,2,2,0,0,1,.7-.65,3.3,3.3,0,0,1,1-.34,5.5,5.5,0,0,1,1.16-.11q.4,0,.72,0a3.94,3.94,0,0,1,.51.08v-.18a1,1,0,0,0-.32-.77,1.69,1.69,0,0,0-1.12-.29,9.26,9.26,0,0,0-1,.07,4.71,4.71,0,0,0-.89.2l-.27-1.52.45-.11.6-.1.68-.08Q73.18,23.75,73.54,23.75Zm.17,5.52h.59l.44,0V27.79l-.37-.05-.47,0a3.24,3.24,0,0,0-.55,0,1.48,1.48,0,0,0-.45.12.76.76,0,0,0-.31.24.57.57,0,0,0-.11.38.63.63,0,0,0,.33.61A2,2,0,0,0,73.71,29.27Z"/><path class="cls-2" d="M85,30.59H82.89V28H80.72v2.63H78.64V23.93h2.08v2.48h2.17V23.93H85Z"/><path class="cls-2" d="M89,26.25l.65-.58.67-.62c.21-.21.42-.41.61-.61l.52-.51H94l-.69.66-.88.82-.93.84c-.31.28-.61.52-.88.74a8.29,8.29,0,0,1,.89.72c.31.29.63.6.93.93s.59.66.87,1a11.39,11.39,0,0,1,.7.95H91.65c-.17-.23-.36-.47-.58-.72s-.44-.49-.67-.74-.46-.47-.7-.68-.47-.39-.68-.55v2.69H86.94V23.93H89Z"/><path class="cls-2" d="M101.53,27.25a3.87,3.87,0,0,1-.26,1.43,3,3,0,0,1-.72,1.12,3.43,3.43,0,0,1-1.15.71,4.12,4.12,0,0,1-1.49.25,4,4,0,0,1-1.47-.25,3.29,3.29,0,0,1-1.14-.71,3.24,3.24,0,0,1-.75-1.12,3.87,3.87,0,0,1-.26-1.43,3.64,3.64,0,0,1,.27-1.43,3.1,3.1,0,0,1,.76-1.11,3.31,3.31,0,0,1,1.14-.7,4.23,4.23,0,0,1,2.92,0,3.12,3.12,0,0,1,1.88,1.81A3.64,3.64,0,0,1,101.53,27.25Zm-2.13,0A2.2,2.2,0,0,0,99,25.87a1.3,1.3,0,0,0-1.1-.5,1.33,1.33,0,0,0-1.1.5,2.64,2.64,0,0,0,0,2.76,1.31,1.31,0,0,0,1.1.51,1.28,1.28,0,0,0,1.1-.51A2.22,2.22,0,0,0,99.4,27.25Z"/><path class="cls-2" d="M106.33,30.71c-.26,0-.54,0-.84,0l-.88-.07-.82-.1-.65-.11V24l.65-.09.82-.09.88-.05c.3,0,.58,0,.84,0a6.09,6.09,0,0,1,1.53.16,3.41,3.41,0,0,1,1,.43,1.62,1.62,0,0,1,.55.6,1.43,1.43,0,0,1-.07,1.47,1.45,1.45,0,0,1-.6.53,2.21,2.21,0,0,1,.4.21,2.37,2.37,0,0,1,.37.34,1.65,1.65,0,0,1,.27.47,1.71,1.71,0,0,1,.11.62,1.86,1.86,0,0,1-.18.79,1.62,1.62,0,0,1-.59.67,3.6,3.6,0,0,1-1.11.47A6.82,6.82,0,0,1,106.33,30.71Zm.07-4.17a2.49,2.49,0,0,0,.84-.12.51.51,0,0,0,.32-.53.52.52,0,0,0-.36-.52,2.82,2.82,0,0,0-1-.14l-.51,0a4.87,4.87,0,0,0-.51.05v1.24Zm-1.18,2.66.53,0,.61,0a2.92,2.92,0,0,0,1.09-.16.57.57,0,0,0,.39-.58.57.57,0,0,0-.36-.56,2.76,2.76,0,0,0-1-.16h-1.22Z"/><path class="cls-2" d="M111.16,27.26a3.43,3.43,0,0,1,.26-1.36,3.16,3.16,0,0,1,.75-1.12,3.66,3.66,0,0,1,1.19-.75,4.14,4.14,0,0,1,1.59-.28,5.22,5.22,0,0,1,1.08.1,5.16,5.16,0,0,1,1,.27l-.43,1.51a5.06,5.06,0,0,0-.65-.18,3.67,3.67,0,0,0-.78-.08,1.75,1.75,0,0,0-1.38.52,2,2,0,0,0-.45,1.37,2.08,2.08,0,0,0,.42,1.39,1.89,1.89,0,0,0,1.49.49,6,6,0,0,0,.82-.06,3.81,3.81,0,0,0,.79-.2l.3,1.54a4.41,4.41,0,0,1-.91.24,6.51,6.51,0,0,1-1.21.1,5,5,0,0,1-1.73-.27,3.26,3.26,0,0,1-1.2-.74,2.89,2.89,0,0,1-.69-1.11A4.34,4.34,0,0,1,111.16,27.26Z"/><path class="cls-2" d="M120.59,26.25l.65-.58.67-.62c.21-.21.42-.41.61-.61l.52-.51h2.54l-.69.66-.88.82-.93.84c-.31.28-.61.52-.88.74a8.29,8.29,0,0,1,.89.72c.32.29.62.6.93.93s.59.66.87,1a11.39,11.39,0,0,1,.7.95h-2.37c-.17-.23-.36-.47-.58-.72s-.44-.49-.67-.74-.46-.47-.7-.68-.47-.39-.68-.55v2.69h-2.08V23.93h2.08Z"/><path class="cls-2" d="M133.1,27.25a3.87,3.87,0,0,1-.26,1.43,3,3,0,0,1-.72,1.12,3.43,3.43,0,0,1-1.15.71,4.12,4.12,0,0,1-1.49.25,4,4,0,0,1-1.47-.25,3.29,3.29,0,0,1-1.14-.71,3.24,3.24,0,0,1-.75-1.12,3.87,3.87,0,0,1-.26-1.43,3.64,3.64,0,0,1,.27-1.43,3.1,3.1,0,0,1,.76-1.11A3.31,3.31,0,0,1,128,24,4.23,4.23,0,0,1,131,24a3.12,3.12,0,0,1,1.88,1.81A3.64,3.64,0,0,1,133.1,27.25Zm-2.13,0a2.2,2.2,0,0,0-.39-1.38,1.3,1.3,0,0,0-1.1-.5,1.33,1.33,0,0,0-1.1.5,2.64,2.64,0,0,0,0,2.76,1.31,1.31,0,0,0,1.1.51,1.28,1.28,0,0,0,1.1-.51A2.22,2.22,0,0,0,131,27.25Z"/><path class="cls-2" d="M141.41,23.93v6.66h-2.1c0-.42,0-.84,0-1.26s0-.81,0-1.16,0-.66,0-.93,0-.46,0-.59l-.81,1.05c-.27.36-.53.7-.78,1.05s-.48.67-.7,1-.41.6-.58.86h-1.83V23.93h2.08c0,.42,0,.82,0,1.21s0,.73,0,1,0,.59,0,.82,0,.41,0,.54c.56-.75,1.08-1.41,1.55-2s.93-1.13,1.38-1.61ZM138.08,23a3,3,0,0,1-.86-.12,2.37,2.37,0,0,1-.75-.36,1.87,1.87,0,0,1-.55-.57,1.64,1.64,0,0,1-.26-.76l1.44-.34a1.17,1.17,0,0,0,.37.68,1,1,0,0,0,.61.2,1.05,1.05,0,0,0,.62-.18,1,1,0,0,0,.37-.69l1.43.34a1.68,1.68,0,0,1-.26.77,1.92,1.92,0,0,1-.54.56,2.59,2.59,0,0,1-.75.35A3.15,3.15,0,0,1,138.08,23Z"/><path class="cls-2" d="M148.82,26.25c.2-.17.41-.37.64-.58l.67-.62.62-.61.52-.51h2.53l-.69.66-.87.82-.94.84c-.31.28-.6.52-.88.74a7.41,7.41,0,0,1,.89.72q.48.43.93.93c.31.33.6.66.87,1a11.66,11.66,0,0,1,.71.95h-2.38q-.25-.35-.57-.72l-.67-.74c-.23-.24-.47-.47-.71-.68s-.46-.39-.67-.55v2.69h-2.09V23.93h2.09Z"/><path class="cls-2" d="M157.44,23.75a5.52,5.52,0,0,1,1.54.19,2.48,2.48,0,0,1,1,.55,1.85,1.85,0,0,1,.52.86,3.57,3.57,0,0,1,.16,1.12V30.4l-1.25.21a13.16,13.16,0,0,1-1.93.12,6.29,6.29,0,0,1-1.29-.12,3,3,0,0,1-1-.37,1.74,1.74,0,0,1-.64-.68,2.14,2.14,0,0,1-.22-1,1.74,1.74,0,0,1,.26-1,1.88,1.88,0,0,1,.69-.65,3.3,3.3,0,0,1,1-.34,5.57,5.57,0,0,1,1.16-.11c.27,0,.52,0,.73,0a3.94,3.94,0,0,1,.51.08v-.18a1,1,0,0,0-.33-.77,1.67,1.67,0,0,0-1.12-.29,9.26,9.26,0,0,0-1,.07,4.71,4.71,0,0,0-.89.2L155,24.07l.46-.11.59-.1.68-.08Q157.08,23.75,157.44,23.75Zm.17,5.52h.59l.45,0V27.79l-.38-.05-.46,0a3.36,3.36,0,0,0-.56,0,1.48,1.48,0,0,0-.45.12.83.83,0,0,0-.31.24.63.63,0,0,0-.11.38.63.63,0,0,0,.33.61A2,2,0,0,0,157.61,29.27Z"/><path class="cls-2" d="M169.38,27.26a4.42,4.42,0,0,1-.21,1.4,3,3,0,0,1-.61,1.09,2.72,2.72,0,0,1-1,.71,3.5,3.5,0,0,1-1.38.25,4.25,4.25,0,0,1-.82-.07,3.53,3.53,0,0,1-.72-.22v2.51h-2.09V24.16l.64-.15.77-.12.81-.08.79,0a5,5,0,0,1,1.62.24,3.5,3.5,0,0,1,1.21.7,3.07,3.07,0,0,1,.75,1.1A3.89,3.89,0,0,1,169.38,27.26Zm-2.12,0a2.13,2.13,0,0,0-.44-1.4,1.58,1.58,0,0,0-1.29-.53l-.51,0-.39.05v3.4a1.65,1.65,0,0,0,.51.19,2.72,2.72,0,0,0,.63.08C166.76,29.12,167.26,28.52,167.26,27.31Z"/><path class="cls-2" d="M177.08,25.47h-2.35v5.12h-2.08V25.47h-2.36V23.93h6.79Z"/><path class="cls-2" d="M185.23,27.25a3.87,3.87,0,0,1-.25,1.43,3.07,3.07,0,0,1-.73,1.12,3.49,3.49,0,0,1-1.14.71,4.54,4.54,0,0,1-3,0A3.49,3.49,0,0,1,179,29.8a3.22,3.22,0,0,1-.74-1.12,3.68,3.68,0,0,1-.27-1.43,3.48,3.48,0,0,1,.28-1.43,3.2,3.2,0,0,1,.75-1.11,3.45,3.45,0,0,1,1.15-.7,4.2,4.2,0,0,1,2.91,0,3.13,3.13,0,0,1,1.14.7,3.2,3.2,0,0,1,.75,1.11A3.83,3.83,0,0,1,185.23,27.25Zm-2.13,0a2.2,2.2,0,0,0-.38-1.38,1.31,1.31,0,0,0-1.1-.5,1.35,1.35,0,0,0-1.11.5,2.64,2.64,0,0,0,0,2.76,1.33,1.33,0,0,0,1.11.51,1.3,1.3,0,0,0,1.1-.51A2.22,2.22,0,0,0,183.1,27.25Z"/><path class="cls-2" d="M193.55,23.93v6.66h-2.1c0-.42,0-.84,0-1.26s0-.81,0-1.16,0-.66,0-.93,0-.46,0-.59l-.82,1.05c-.27.36-.53.7-.77,1.05l-.7,1c-.22.31-.42.6-.58.86h-1.84V23.93h2.09c0,.42,0,.82,0,1.21s0,.73,0,1,0,.59,0,.82,0,.41,0,.54c.56-.75,1.07-1.41,1.55-2s.93-1.13,1.37-1.61ZM190.22,23a3,3,0,0,1-.86-.12,2.37,2.37,0,0,1-.75-.36,1.9,1.9,0,0,1-.56-.57,1.76,1.76,0,0,1-.26-.76l1.45-.34a1.12,1.12,0,0,0,.37.68,1,1,0,0,0,.61.2,1.05,1.05,0,0,0,.62-.18,1.08,1.08,0,0,0,.37-.69l1.43.34a1.81,1.81,0,0,1-.26.77,2.09,2.09,0,0,1-.55.56,2.59,2.59,0,0,1-.75.35A3.13,3.13,0,0,1,190.22,23Z"/><line class="cls-3" x1="50" y1="10.58" x2="50" y2="31.41"/><path class="cls-2" d="M33.79,13.11H16.3a2.3,2.3,0,0,0-2.3,2.3V25.53a2.31,2.31,0,0,0,2.3,2.31H33.79a2.31,2.31,0,0,0,2.3-2.31V15.41A2.3,2.3,0,0,0,33.79,13.11Zm1.38,12.42a1.38,1.38,0,0,1-1.38,1.39H16.3a1.38,1.38,0,0,1-1.38-1.39V15.41A1.38,1.38,0,0,1,16.3,14H33.79a1.38,1.38,0,0,1,1.38,1.38V25.53Z"/><path class="cls-2" d="M35.63,15.87H14.46a.46.46,0,0,0-.46.46v2.76a.47.47,0,0,0,.46.46H35.63a.46.46,0,0,0,.46-.46V16.33A.45.45,0,0,0,35.63,15.87Zm-.46,2.76H14.92V16.79H35.17v1.84Z"/><path class="cls-2" d="M22.75,22.31H17.22a.47.47,0,0,0-.46.46.46.46,0,0,0,.46.46h5.53a.46.46,0,0,0,.46-.46A.47.47,0,0,0,22.75,22.31Z"/><path class="cls-2" d="M22.75,24.15H17.22a.47.47,0,0,0-.46.46.46.46,0,0,0,.46.46h5.53a.46.46,0,0,0,.46-.46A.47.47,0,0,0,22.75,24.15Z"/><path class="cls-2" d="M32,21.39H31a1.38,1.38,0,0,0-1.38,1.38v.92A1.38,1.38,0,0,0,31,25.07H32a1.38,1.38,0,0,0,1.38-1.38v-.92A1.38,1.38,0,0,0,32,21.39Zm.46,2.3a.46.46,0,0,1-.46.46H31a.46.46,0,0,1-.46-.46v-.92a.47.47,0,0,1,.46-.46H32a.47.47,0,0,1,.46.46Z"/></svg>