<svg id="Layer_1" data-name="Layer 1" xmlns="http://www.w3.org/2000/svg" viewBox="0 0 210 40"><defs><style>.cls-1{fill:#0066b3;}.cls-2,.cls-3{fill:#fff;}.cls-3{font-size:14px;font-family:Ubuntu-Bold, Ubuntu;font-weight:700;}.cls-4{letter-spacing:-0.08em;}</style></defs><title>button_online_1</title><rect class="cls-1" width="210" height="40"/><rect class="cls-2" x="35.4" y="24.69" width="2.25" height="0.75"/><rect class="cls-2" x="32.4" y="24.69" width="2.25" height="0.75"/><rect class="cls-2" x="29.4" y="24.69" width="2.25" height="0.75"/><path class="cls-2" d="M41.39,17.5,34,10.08a1.11,1.11,0,0,0-.79-.33h0a1.13,1.13,0,0,0-.79.33l-7.86,7.86H20.41a1.14,1.14,0,0,0-1.13,1.13V29.56a1.13,1.13,0,0,0,1.13,1.12H26l1.12,1.12a1.1,1.1,0,0,0,.8.34h0a1.08,1.08,0,0,0,.79-.34l1.12-1.12H38.4a1.12,1.12,0,0,0,1.12-1.12V21l1.87-1.86a1.12,1.12,0,0,0,0-1.59Zm-4.77-3.71-4.15,4.15H29.28L35,12.2Zm-3.71-3.18a.38.38,0,0,1,.53,0h0l1.06,1.06-6.28,6.27H25.58ZM28.14,31.28a.36.36,0,0,1-.26.11.39.39,0,0,1-.27-.11l-.59-.6h1.71Zm10.63-1.72a.38.38,0,0,1-.37.38h-18a.38.38,0,0,1-.38-.38V24.31H38.77Zm0-6H20V21.32H38.77Zm0-3H20v-1.5a.38.38,0,0,1,.38-.38h18a.38.38,0,0,1,.37.38Zm2.09-2h0l-1.34,1.33v-.82a1.13,1.13,0,0,0-1.12-1.13H33.52l3.63-3.62L40.86,18a.36.36,0,0,1,.11.26A.39.39,0,0,1,40.86,18.56Z"/><path class="cls-2" d="M22.88,29.2,23,29a1.48,1.48,0,0,0,2,.26,1.52,1.52,0,0,0,.65-1.24,1.5,1.5,0,0,0-1.49-1.5l-.23,0h0a1.54,1.54,0,0,0-.88.5,1.5,1.5,0,1,0-.15,2.12Zm1.18-1.88h.1a.76.76,0,0,1,.75.75.86.86,0,0,1-.15.44.21.21,0,0,0,0,.06h0a.75.75,0,1,1-.65-1.25Zm-2.15,0a.75.75,0,0,1,0,1.5.75.75,0,0,1,0-1.5Z"/><text class="cls-3" transform="translate(62.5 26.36)">ОПЛ<tspan class="cls-4" x="32.33" y="0">АТ</tspan><tspan x="48.72" y="0">А ОНЛАЙН</tspan></text></svg>