<svg width="204" height="40" viewBox="0 0 204 40" fill="none" xmlns="http://www.w3.org/2000/svg">
<rect width="204" height="40" rx="5" fill="#AFCA0B"/>
<path d="M30 11V13" stroke="white" stroke-width="1.5" stroke-linecap="round" stroke-linejoin="round"/>
<path d="M22 11V13" stroke="white" stroke-width="1.5" stroke-linecap="round" stroke-linejoin="round"/>
<path d="M18 16H34" stroke="white" stroke-width="1.5" stroke-linecap="round" stroke-linejoin="round"/>
<path d="M34 18V14C34 12.895 33.105 12 32 12H20C18.895 12 18 12.895 18 14V25C18 26.105 18.895 27 20 27H26" stroke="white" stroke-width="1.5" stroke-linecap="round" stroke-linejoin="round"/>
<path d="M21.999 18.75C21.861 18.75 21.749 18.862 21.75 19C21.75 19.138 21.862 19.25 22 19.25C22.138 19.25 22.25 19.138 22.25 19C22.25 18.862 22.138 18.75 21.999 18.75" stroke="white" stroke-width="1.5" stroke-linecap="round" stroke-linejoin="round"/>
<path d="M21.999 22.75C21.861 22.75 21.749 22.862 21.75 23C21.75 23.138 21.862 23.25 22 23.25C22.138 23.25 22.25 23.138 22.25 23C22.25 22.862 22.138 22.75 21.999 22.75" stroke="white" stroke-width="1.5" stroke-linecap="round" stroke-linejoin="round"/>
<path d="M25.75 19.001C25.75 19.139 25.862 19.251 26 19.25C26.138 19.25 26.25 19.138 26.25 19C26.25 18.862 26.138 18.75 26 18.75C25.862 18.75 25.75 18.862 25.75 19.001" stroke="white" stroke-width="1.5" stroke-linecap="round" stroke-linejoin="round"/>
<path fill-rule="evenodd" clip-rule="evenodd" d="M32.293 28.7073L36.707 24.2933C37.098 23.9023 37.098 23.2693 36.707 22.8793L35.121 21.2932C34.73 20.9022 34.097 20.9022 33.707 21.2932L29.293 25.7073C29.105 25.8953 29 26.1492 29 26.4142V29.0002H31.586C31.851 29.0002 32.105 28.8953 32.293 28.7073V28.7073Z" stroke="white" stroke-width="1.5" stroke-linecap="round" stroke-linejoin="round"/>
<path d="M68.988 11.078H70.458C70.71 11.078 70.9433 11.0593 71.158 11.022C71.382 10.9847 71.5733 10.9193 71.732 10.826C71.9 10.7327 72.0307 10.6113 72.124 10.462C72.2173 10.3127 72.264 10.126 72.264 9.902C72.264 9.58467 72.138 9.34667 71.886 9.188C71.634 9.02933 71.2793 8.95 70.822 8.95C70.3087 8.95 69.8607 9.01067 69.478 9.132C69.0953 9.244 68.7313 9.398 68.386 9.594L67.686 7.872C68.0593 7.63867 68.5073 7.452 69.03 7.312C69.562 7.16267 70.164 7.088 70.836 7.088C71.3587 7.088 71.844 7.14867 72.292 7.27C72.74 7.382 73.1273 7.55467 73.454 7.788C73.7807 8.012 74.0327 8.30133 74.21 8.656C74.3967 9.00133 74.49 9.40733 74.49 9.874C74.49 10.2287 74.392 10.5833 74.196 10.938C74.0093 11.2833 73.72 11.5773 73.328 11.82C73.5427 11.932 73.7433 12.0627 73.93 12.212C74.126 12.3613 74.294 12.534 74.434 12.73C74.5833 12.926 74.7 13.15 74.784 13.402C74.868 13.6447 74.91 13.92 74.91 14.228C74.91 15.264 74.5413 16.02 73.804 16.496C73.076 16.9627 72.0587 17.196 70.752 17.196C70.4253 17.196 70.0987 17.1727 69.772 17.126C69.4547 17.0793 69.1467 17.0233 68.848 16.958C68.5587 16.8833 68.2833 16.7993 68.022 16.706C67.77 16.6127 67.546 16.5147 67.35 16.412L67.994 14.704C68.1247 14.76 68.2833 14.8253 68.47 14.9C68.666 14.9653 68.8807 15.0307 69.114 15.096C69.3473 15.1613 69.59 15.2173 69.842 15.264C70.094 15.3107 70.346 15.334 70.598 15.334C71.214 15.334 71.7087 15.2453 72.082 15.068C72.4647 14.8907 72.656 14.5827 72.656 14.144C72.656 13.8733 72.5953 13.654 72.474 13.486C72.3527 13.318 72.1847 13.192 71.97 13.108C71.7647 13.0147 71.5173 12.954 71.228 12.926C70.948 12.8887 70.64 12.87 70.304 12.87H68.988V11.078ZM79.3389 15.544C79.5443 15.544 79.7403 15.5393 79.9269 15.53C80.1136 15.5207 80.2629 15.5067 80.3749 15.488V13.906C80.2909 13.8873 80.1649 13.8687 79.9969 13.85C79.8289 13.8313 79.6749 13.822 79.5349 13.822C79.3389 13.822 79.1523 13.836 78.9749 13.864C78.8069 13.8827 78.6576 13.9247 78.5269 13.99C78.3963 14.0553 78.2936 14.144 78.2189 14.256C78.1443 14.368 78.1069 14.508 78.1069 14.676C78.1069 15.0027 78.2143 15.2313 78.4289 15.362C78.6529 15.4833 78.9563 15.544 79.3389 15.544ZM79.1709 9.44C79.7869 9.44 80.3003 9.51 80.7109 9.65C81.1216 9.79 81.4483 9.99067 81.6909 10.252C81.9429 10.5133 82.1203 10.8307 82.2229 11.204C82.3256 11.5773 82.3769 11.9927 82.3769 12.45V16.79C82.0783 16.8553 81.6629 16.93 81.1309 17.014C80.5989 17.1073 79.9549 17.154 79.1989 17.154C78.7229 17.154 78.2889 17.112 77.8969 17.028C77.5143 16.944 77.1829 16.8087 76.9029 16.622C76.6229 16.426 76.4083 16.174 76.2589 15.866C76.1096 15.558 76.0349 15.18 76.0349 14.732C76.0349 14.3027 76.1189 13.9387 76.2869 13.64C76.4643 13.3413 76.6976 13.1033 76.9869 12.926C77.2763 12.7487 77.6076 12.6227 77.9809 12.548C78.3543 12.464 78.7416 12.422 79.1429 12.422C79.4136 12.422 79.6516 12.436 79.8569 12.464C80.0716 12.4827 80.2443 12.5107 80.3749 12.548V12.352C80.3749 11.9973 80.2676 11.7127 80.0529 11.498C79.8383 11.2833 79.4649 11.176 78.9329 11.176C78.5783 11.176 78.2283 11.204 77.8829 11.26C77.5376 11.3067 77.2389 11.3767 76.9869 11.47L76.7209 9.79C76.8423 9.75267 76.9916 9.71533 77.1689 9.678C77.3556 9.63133 77.5563 9.594 77.7709 9.566C77.9856 9.52867 78.2096 9.50067 78.4429 9.482C78.6856 9.454 78.9283 9.44 79.1709 9.44ZM90.6052 9.636V17H88.5192V11.372H86.3492V17H84.2632V9.636H90.6052ZM99.268 9.636V17H97.168C97.168 16.5333 97.1727 16.0713 97.182 15.614C97.1914 15.1473 97.2007 14.718 97.21 14.326C97.2194 13.934 97.2287 13.5933 97.238 13.304C97.2567 13.0053 97.266 12.786 97.266 12.646C96.9954 13.0287 96.7247 13.416 96.454 13.808C96.1834 14.2 95.922 14.5873 95.67 14.97C95.4274 15.3433 95.194 15.7027 94.97 16.048C94.7554 16.3933 94.564 16.7107 94.396 17H92.562V9.636H94.648C94.648 10.1027 94.6434 10.5507 94.634 10.98C94.634 11.4 94.6294 11.7827 94.62 12.128C94.6107 12.4733 94.6014 12.7767 94.592 13.038C94.5827 13.29 94.578 13.486 94.578 13.626C95.138 12.8047 95.6514 12.0673 96.118 11.414C96.594 10.7607 97.056 10.168 97.504 9.636H99.268ZM100.88 13.318C100.88 12.786 100.964 12.2867 101.132 11.82C101.309 11.344 101.561 10.9333 101.888 10.588C102.215 10.2333 102.611 9.95333 103.078 9.748C103.545 9.54267 104.077 9.44 104.674 9.44C105.066 9.44 105.425 9.47733 105.752 9.552C106.079 9.61733 106.396 9.71533 106.704 9.846L106.27 11.512C106.074 11.4373 105.859 11.372 105.626 11.316C105.393 11.26 105.131 11.232 104.842 11.232C104.226 11.232 103.764 11.4233 103.456 11.806C103.157 12.1887 103.008 12.6927 103.008 13.318C103.008 13.9807 103.148 14.494 103.428 14.858C103.717 15.222 104.217 15.404 104.926 15.404C105.178 15.404 105.449 15.3807 105.738 15.334C106.027 15.2873 106.293 15.2127 106.536 15.11L106.83 16.818C106.587 16.9207 106.284 17.0093 105.92 17.084C105.556 17.1587 105.155 17.196 104.716 17.196C104.044 17.196 103.465 17.098 102.98 16.902C102.495 16.6967 102.093 16.4213 101.776 16.076C101.468 15.7307 101.239 15.3247 101.09 14.858C100.95 14.382 100.88 13.8687 100.88 13.318ZM111.044 15.544C111.249 15.544 111.445 15.5393 111.632 15.53C111.819 15.5207 111.968 15.5067 112.08 15.488V13.906C111.996 13.8873 111.87 13.8687 111.702 13.85C111.534 13.8313 111.38 13.822 111.24 13.822C111.044 13.822 110.857 13.836 110.68 13.864C110.512 13.8827 110.363 13.9247 110.232 13.99C110.101 14.0553 109.999 14.144 109.924 14.256C109.849 14.368 109.812 14.508 109.812 14.676C109.812 15.0027 109.919 15.2313 110.134 15.362C110.358 15.4833 110.661 15.544 111.044 15.544ZM110.876 9.44C111.492 9.44 112.005 9.51 112.416 9.65C112.827 9.79 113.153 9.99067 113.396 10.252C113.648 10.5133 113.825 10.8307 113.928 11.204C114.031 11.5773 114.082 11.9927 114.082 12.45V16.79C113.783 16.8553 113.368 16.93 112.836 17.014C112.304 17.1073 111.66 17.154 110.904 17.154C110.428 17.154 109.994 17.112 109.602 17.028C109.219 16.944 108.888 16.8087 108.608 16.622C108.328 16.426 108.113 16.174 107.964 15.866C107.815 15.558 107.74 15.18 107.74 14.732C107.74 14.3027 107.824 13.9387 107.992 13.64C108.169 13.3413 108.403 13.1033 108.692 12.926C108.981 12.7487 109.313 12.6227 109.686 12.548C110.059 12.464 110.447 12.422 110.848 12.422C111.119 12.422 111.357 12.436 111.562 12.464C111.777 12.4827 111.949 12.5107 112.08 12.548V12.352C112.08 11.9973 111.973 11.7127 111.758 11.498C111.543 11.2833 111.17 11.176 110.638 11.176C110.283 11.176 109.933 11.204 109.588 11.26C109.243 11.3067 108.944 11.3767 108.692 11.47L108.426 9.79C108.547 9.75267 108.697 9.71533 108.874 9.678C109.061 9.63133 109.261 9.594 109.476 9.566C109.691 9.52867 109.915 9.50067 110.148 9.482C110.391 9.454 110.633 9.44 110.876 9.44ZM122.058 11.344H119.706V17H117.62V11.344H115.268V9.636H122.058V11.344ZM126.446 15.544C126.828 15.544 127.127 15.474 127.342 15.334C127.566 15.1847 127.678 14.9467 127.678 14.62C127.678 14.452 127.64 14.312 127.566 14.2C127.491 14.0787 127.388 13.9853 127.258 13.92C127.127 13.8453 126.973 13.794 126.796 13.766C126.628 13.738 126.446 13.724 126.25 13.724C126.11 13.724 125.956 13.7333 125.788 13.752C125.62 13.7707 125.494 13.7893 125.41 13.808V15.488C125.522 15.5067 125.671 15.5207 125.858 15.53C126.044 15.5393 126.24 15.544 126.446 15.544ZM125.41 12.254C125.54 12.2167 125.708 12.1887 125.914 12.17C126.128 12.142 126.371 12.128 126.642 12.128C127.08 12.128 127.486 12.1793 127.86 12.282C128.242 12.3847 128.574 12.5433 128.854 12.758C129.134 12.9633 129.353 13.2293 129.512 13.556C129.67 13.8733 129.75 14.2467 129.75 14.676C129.75 15.1053 129.675 15.4787 129.526 15.796C129.376 16.104 129.162 16.3607 128.882 16.566C128.602 16.762 128.266 16.9067 127.874 17C127.491 17.1027 127.062 17.154 126.586 17.154C125.97 17.154 125.405 17.1213 124.892 17.056C124.378 17 123.856 16.9067 123.324 16.776V9.636H125.41V12.254ZM130.876 13.318C130.876 12.786 130.96 12.2867 131.128 11.82C131.305 11.344 131.557 10.9333 131.884 10.588C132.211 10.2333 132.607 9.95333 133.074 9.748C133.541 9.54267 134.073 9.44 134.67 9.44C135.062 9.44 135.421 9.47733 135.748 9.552C136.075 9.61733 136.392 9.71533 136.7 9.846L136.266 11.512C136.07 11.4373 135.855 11.372 135.622 11.316C135.389 11.26 135.127 11.232 134.838 11.232C134.222 11.232 133.76 11.4233 133.452 11.806C133.153 12.1887 133.004 12.6927 133.004 13.318C133.004 13.9807 133.144 14.494 133.424 14.858C133.713 15.222 134.213 15.404 134.922 15.404C135.174 15.404 135.445 15.3807 135.734 15.334C136.023 15.2873 136.289 15.2127 136.532 15.11L136.826 16.818C136.583 16.9207 136.28 17.0093 135.916 17.084C135.552 17.1587 135.151 17.196 134.712 17.196C134.04 17.196 133.461 17.098 132.976 16.902C132.491 16.6967 132.089 16.4213 131.772 16.076C131.464 15.7307 131.235 15.3247 131.086 14.858C130.946 14.382 130.876 13.8687 130.876 13.318ZM141.278 14.382C140.979 14.8207 140.713 15.264 140.48 15.712C140.247 16.1507 140.023 16.58 139.808 17H137.666C137.937 16.3933 138.212 15.838 138.492 15.334C138.772 14.83 139.043 14.396 139.304 14.032C138.912 13.8267 138.599 13.5653 138.366 13.248C138.133 12.9213 138.016 12.5153 138.016 12.03C138.016 11.2087 138.31 10.5787 138.898 10.14C139.495 9.70133 140.317 9.482 141.362 9.482C141.595 9.482 141.852 9.49133 142.132 9.51C142.421 9.52867 142.706 9.55667 142.986 9.594C143.266 9.63133 143.532 9.67333 143.784 9.72C144.045 9.75733 144.265 9.79933 144.442 9.846V17H142.356V14.382H141.278ZM142.356 11.134C142.263 11.1247 142.118 11.1153 141.922 11.106C141.726 11.0873 141.558 11.078 141.418 11.078C140.905 11.078 140.555 11.1667 140.368 11.344C140.181 11.512 140.088 11.7313 140.088 12.002C140.088 12.17 140.125 12.3147 140.2 12.436C140.275 12.548 140.373 12.6413 140.494 12.716C140.615 12.7813 140.751 12.828 140.9 12.856C141.049 12.884 141.199 12.898 141.348 12.898H142.356V11.134ZM74.322 33H72.236V30.088H70.066V33H67.98V25.636H70.066V28.38H72.236V25.636H74.322V33ZM79.0928 31.544C79.2982 31.544 79.4942 31.5393 79.6808 31.53C79.8675 31.5207 80.0168 31.5067 80.1288 31.488V29.906C80.0448 29.8873 79.9188 29.8687 79.7508 29.85C79.5828 29.8313 79.4288 29.822 79.2888 29.822C79.0928 29.822 78.9062 29.836 78.7288 29.864C78.5608 29.8827 78.4115 29.9247 78.2808 29.99C78.1502 30.0553 78.0475 30.144 77.9728 30.256C77.8982 30.368 77.8608 30.508 77.8608 30.676C77.8608 31.0027 77.9682 31.2313 78.1828 31.362C78.4068 31.4833 78.7102 31.544 79.0928 31.544ZM78.9248 25.44C79.5408 25.44 80.0542 25.51 80.4648 25.65C80.8755 25.79 81.2022 25.9907 81.4448 26.252C81.6968 26.5133 81.8742 26.8307 81.9768 27.204C82.0795 27.5773 82.1308 27.9927 82.1308 28.45V32.79C81.8322 32.8553 81.4168 32.93 80.8848 33.014C80.3528 33.1073 79.7088 33.154 78.9528 33.154C78.4768 33.154 78.0428 33.112 77.6508 33.028C77.2682 32.944 76.9368 32.8087 76.6568 32.622C76.3768 32.426 76.1622 32.174 76.0128 31.866C75.8635 31.558 75.7888 31.18 75.7888 30.732C75.7888 30.3027 75.8728 29.9387 76.0408 29.64C76.2182 29.3413 76.4515 29.1033 76.7408 28.926C77.0302 28.7487 77.3615 28.6227 77.7348 28.548C78.1082 28.464 78.4955 28.422 78.8968 28.422C79.1675 28.422 79.4055 28.436 79.6108 28.464C79.8255 28.4827 79.9982 28.5107 80.1288 28.548V28.352C80.1288 27.9973 80.0215 27.7127 79.8068 27.498C79.5922 27.2833 79.2188 27.176 78.6868 27.176C78.3322 27.176 77.9822 27.204 77.6368 27.26C77.2915 27.3067 76.9928 27.3767 76.7408 27.47L76.4748 25.79C76.5962 25.7527 76.7455 25.7153 76.9228 25.678C77.1095 25.6313 77.3102 25.594 77.5248 25.566C77.7395 25.5287 77.9635 25.5007 78.1968 25.482C78.4395 25.454 78.6822 25.44 78.9248 25.44ZM93.7224 25.636V33H91.6364V27.372H89.4664V33H87.3804V25.636H93.7224ZM100.397 29.374C100.397 28.73 100.253 28.2167 99.9632 27.834C99.6739 27.442 99.2446 27.246 98.6752 27.246C98.4886 27.246 98.3159 27.2553 98.1572 27.274C97.9986 27.2833 97.8679 27.2973 97.7652 27.316V31.082C97.8959 31.166 98.0639 31.236 98.2692 31.292C98.4839 31.348 98.6986 31.376 98.9132 31.376C99.9026 31.376 100.397 30.7087 100.397 29.374ZM102.525 29.318C102.525 29.8873 102.455 30.4053 102.315 30.872C102.175 31.3387 101.97 31.74 101.699 32.076C101.429 32.412 101.093 32.6733 100.691 32.86C100.29 33.0467 99.8279 33.14 99.3052 33.14C99.0159 33.14 98.7452 33.112 98.4932 33.056C98.2412 33 97.9986 32.9207 97.7652 32.818V35.59H95.6792V25.888C95.8659 25.832 96.0806 25.7807 96.3232 25.734C96.5659 25.678 96.8179 25.6313 97.0792 25.594C97.3499 25.5567 97.6206 25.5287 97.8912 25.51C98.1712 25.482 98.4372 25.468 98.6892 25.468C99.2959 25.468 99.8372 25.5613 100.313 25.748C100.789 25.9253 101.191 26.182 101.517 26.518C101.844 26.8447 102.091 27.246 102.259 27.722C102.437 28.198 102.525 28.73 102.525 29.318ZM110.834 25.636V33H108.734C108.734 32.5333 108.739 32.0713 108.748 31.614C108.758 31.1473 108.767 30.718 108.776 30.326C108.786 29.934 108.795 29.5933 108.804 29.304C108.823 29.0053 108.832 28.786 108.832 28.646C108.562 29.0287 108.291 29.416 108.02 29.808C107.75 30.2 107.488 30.5873 107.236 30.97C106.994 31.3433 106.76 31.7027 106.536 32.048C106.322 32.3933 106.13 32.7107 105.962 33H104.128V25.636H106.214C106.214 26.1027 106.21 26.5507 106.2 26.98C106.2 27.4 106.196 27.7827 106.186 28.128C106.177 28.4733 106.168 28.7767 106.158 29.038C106.149 29.29 106.144 29.486 106.144 29.626C106.704 28.8047 107.218 28.0673 107.684 27.414C108.16 26.7607 108.622 26.168 109.07 25.636H110.834ZM112.446 29.374C112.446 28.7207 112.544 28.1513 112.74 27.666C112.946 27.1713 113.212 26.7607 113.538 26.434C113.865 26.1073 114.238 25.86 114.658 25.692C115.088 25.524 115.526 25.44 115.974 25.44C117.02 25.44 117.846 25.762 118.452 26.406C119.059 27.0407 119.362 27.9787 119.362 29.22C119.362 29.3413 119.358 29.4767 119.348 29.626C119.339 29.766 119.33 29.892 119.32 30.004H114.588C114.635 30.4333 114.836 30.774 115.19 31.026C115.545 31.278 116.021 31.404 116.618 31.404C117.001 31.404 117.374 31.3713 117.738 31.306C118.112 31.2313 118.415 31.1427 118.648 31.04L118.928 32.734C118.816 32.79 118.667 32.846 118.48 32.902C118.294 32.958 118.084 33.0047 117.85 33.042C117.626 33.0887 117.384 33.126 117.122 33.154C116.861 33.182 116.6 33.196 116.338 33.196C115.676 33.196 115.097 33.098 114.602 32.902C114.117 32.706 113.711 32.44 113.384 32.104C113.067 31.7587 112.829 31.3527 112.67 30.886C112.521 30.4193 112.446 29.9153 112.446 29.374ZM117.346 28.576C117.337 28.3987 117.304 28.226 117.248 28.058C117.202 27.89 117.122 27.7407 117.01 27.61C116.908 27.4793 116.772 27.372 116.604 27.288C116.446 27.204 116.245 27.162 116.002 27.162C115.769 27.162 115.568 27.204 115.4 27.288C115.232 27.3627 115.092 27.4653 114.98 27.596C114.868 27.7267 114.78 27.8807 114.714 28.058C114.658 28.226 114.616 28.3987 114.588 28.576H117.346ZM123.044 28.758C123.026 29.0847 123.007 29.4393 122.988 29.822C122.97 30.2047 122.951 30.592 122.932 30.984C122.923 31.3667 122.909 31.7353 122.89 32.09C122.881 32.4353 122.872 32.7387 122.862 33H120.832C120.851 32.4867 120.879 31.908 120.916 31.264C120.963 30.62 121.01 29.9667 121.056 29.304C121.112 28.632 121.168 27.9787 121.224 27.344C121.29 26.7093 121.35 26.14 121.406 25.636H123.142C123.544 26.2893 123.912 26.966 124.248 27.666C124.584 28.366 124.939 29.136 125.312 29.976C125.704 29.08 126.087 28.254 126.46 27.498C126.834 26.7327 127.17 26.112 127.468 25.636H129.232C129.298 26.14 129.358 26.7093 129.414 27.344C129.48 27.9787 129.536 28.632 129.582 29.304C129.638 29.9667 129.685 30.62 129.722 31.264C129.76 31.908 129.788 32.4867 129.806 33H127.734C127.716 32.272 127.688 31.5487 127.65 30.83C127.622 30.1113 127.594 29.416 127.566 28.744L126.026 32.132H124.584L123.044 28.758Z" fill="white"/>
<line x1="53.5" y1="8" x2="53.5" y2="33" stroke="url(#paint0_linear_25_15164)"/>
<defs>
<linearGradient id="paint0_linear_25_15164" x1="52" y1="8" x2="52" y2="33" gradientUnits="userSpaceOnUse">
<stop stop-color="white" stop-opacity="0"/>
<stop offset="0.333333" stop-color="white"/>
<stop offset="0.703125" stop-color="white"/>
<stop offset="1" stop-color="white" stop-opacity="0"/>
</linearGradient>
</defs>
</svg>
