<svg width="28" height="28" viewBox="0 0 28 28" fill="none" xmlns="http://www.w3.org/2000/svg">
<path fill-rule="evenodd" clip-rule="evenodd" d="M24.9137 13.8634C24.9387 13.9187 24.9573 13.9641 24.9709 14C24.9573 14.0359 24.9387 14.0813 24.9137 14.1366C24.8045 14.3779 24.6185 14.7061 24.3412 15.1012C23.7882 15.8894 22.9538 16.8277 21.897 17.7262C19.7557 19.5466 16.9495 21 14 21C11.0505 21 8.24426 19.5466 6.10304 17.7262C5.04618 16.8277 4.21184 15.8894 3.65877 15.1012C3.38152 14.7061 3.19548 14.3779 3.08634 14.1366C3.06129 14.0813 3.04275 14.0359 3.02913 14C3.04275 13.9641 3.06129 13.9187 3.08634 13.8634C3.19548 13.6221 3.38152 13.2939 3.65877 12.8988C4.21184 12.1106 5.04618 11.1723 6.10304 10.2738C7.09284 9.4323 8.22474 8.66923 9.44721 8.09189C8.54514 9.14179 8 10.5072 8 12C8 15.3137 10.6863 18 14 18C17.3137 18 20 15.3137 20 12C20 10.5072 19.4549 9.14179 18.5528 8.09189C19.7753 8.66923 20.9072 9.4323 21.897 10.2738C22.9538 11.1723 23.7882 12.1106 24.3412 12.8988C24.6185 13.2939 24.8045 13.6221 24.9137 13.8634ZM27 14C27 16 21.1797 23 14 23C6.8203 23 1 16 1 14C1 12 6.8203 5 14 5C21.1797 5 27 12 27 14Z" fill="url(#paint0_linear)"/>
<defs>
<linearGradient id="paint0_linear" x1="1" y1="5" x2="17.848" y2="29.336" gradientUnits="userSpaceOnUse">
<stop stop-color="#0098F7"/>
<stop offset="1" stop-color="#0C4778"/>
</linearGradient>
</defs>
</svg>
